<svg viewBox="0 0 58 66" fill="none" xmlns="http://www.w3.org/2000/svg">
<path d="M53.8571 0H8.28571C3.70915 0 0 3.69316 0 8.25V57.75C0 62.3068 3.70915 66 8.28571 66H53.8571C56.1448 66 58 64.1528 58 61.875V4.125C58 1.84723 56.1448 0 53.8571 0ZM53.8571 61.875H8.28571C6.00196 61.875 4.14286 60.0239 4.14286 57.75V8.25C4.14286 5.97609 6.00196 4.125 8.28571 4.125H53.8571V61.875ZM14.5 53.625H43.5C44.6393 53.625 45.5714 52.6969 45.5714 51.5625C45.5714 50.4281 44.6393 49.5 43.5 49.5H14.5C13.3607 49.5 12.4286 50.4281 12.4286 51.5625C12.4286 52.6969 13.3607 53.625 14.5 53.625ZM29 41.25C38.1518 41.25 45.5714 33.8624 45.5714 24.75C45.5714 15.6376 38.1518 8.25 29 8.25C19.8482 8.25 12.4286 15.6376 12.4286 24.75C12.4286 33.8624 19.8482 41.25 29 41.25ZM41.2188 22.6875H36.1581C35.9652 19.2032 35.3114 16.0682 34.3184 13.6112C37.9058 15.3179 40.5353 18.663 41.2188 22.6875ZM36.1581 26.8125H41.2188C40.534 30.837 37.9058 34.1821 34.3184 35.8888C35.3127 33.4318 35.9652 30.2968 36.1581 26.8125ZM29 12.5439C29.9956 13.5042 31.689 16.9808 32.0333 22.6875H25.9654C26.311 16.9821 28.0044 13.5042 29 12.5439ZM32.0333 26.8125C31.689 32.5179 29.9956 35.9958 29 36.9561C28.0044 35.9958 26.311 32.5192 25.9667 26.8125H32.0333ZM23.6816 13.6112C22.6873 16.0682 22.0348 19.2032 21.8419 22.6875H16.7812C17.4647 18.663 20.0942 15.3179 23.6816 13.6112ZM21.8419 26.8125C22.0348 30.2968 22.6886 33.4318 23.6816 35.8888C20.0942 34.1821 17.4647 30.837 16.7812 26.8125H21.8419Z" fill="black"/>
</svg>
