<svg viewBox="0 0 22 18" fill="none" xmlns="http://www.w3.org/2000/svg">
<path d="M17.05 13.125H18.0125C18.2875 13.125 18.5625 12.85 18.5625 12.575V2.675C18.5625 2.4 18.2875 2.125 18.0125 2.125H17.05C16.775 2.125 16.5 2.4 16.5 2.675V12.575C16.5 12.85 16.775 13.125 17.05 13.125ZM8.8 13.125H9.7625C10.0375 13.125 10.3125 12.85 10.3125 12.575V4.05C10.3125 3.775 10.0375 3.5 9.7625 3.5H8.8C8.525 3.5 8.25 3.775 8.25 4.05V12.575C8.25 12.85 8.525 13.125 8.8 13.125ZM12.925 13.125H13.8875C14.1625 13.125 14.4375 12.85 14.4375 12.575V6.8C14.4375 6.525 14.1625 6.25 13.8875 6.25H12.925C12.65 6.25 12.375 6.525 12.375 6.8V12.575C12.375 12.85 12.65 13.125 12.925 13.125ZM21.3125 15.1875H2.0625V1.4375C2.0625 1.05766 1.75484 0.75 1.375 0.75H0.6875C0.307656 0.75 0 1.05766 0 1.4375V15.875C0 16.6343 0.615742 17.25 1.375 17.25H21.3125C21.6923 17.25 22 16.9423 22 16.5625V15.875C22 15.4952 21.6923 15.1875 21.3125 15.1875ZM4.675 13.125H5.6375C5.9125 13.125 6.1875 12.85 6.1875 12.575V9.55C6.1875 9.275 5.9125 9 5.6375 9H4.675C4.4 9 4.125 9.275 4.125 9.55V12.575C4.125 12.85 4.4 13.125 4.675 13.125Z" fill="black"/>
</svg>
