<svg viewBox="0 0 26 24" xmlns="http://www.w3.org/2000/svg" >
    <g stroke="none" stroke-width="1" fill="none" fill-rule="evenodd">
        <path d="M13.3226,23.6733 L14.4054,22.6127 C14.6616,22.3616 14.6616,21.9546 14.4054,21.7035 L5.92171,13.393 L24.5938,13.393 C24.9562,13.393 25.25,13.1052 25.25,12.7502 L25.25,11.2502 C25.25,10.8952 24.9562,10.6073 24.5938,10.6073 L5.92171,10.6073 L14.4054,2.29679 C14.6616,2.04576 14.6616,1.63872 14.4054,1.38763 L13.3226,0.326972 C13.0664,0.0759367 12.6508,0.0759368 12.3945,0.326972 L0.942244,11.5456 C0.685979,11.7967 0.685979,12.2037 0.942245,12.4548 L12.3946,23.6733 C12.6508,23.9244 13.0664,23.9244 13.3226,23.6733 Z" fill="black"></path>
    </g>
</svg>
