<svg viewBox="0 0 24 20" fill="none" xmlns="http://www.w3.org/2000/svg">
<path d="M0.5 7.25001H3.53758L8.90475 0.738399C9.26237 0.304457 9.89346 0.251692 10.3143 0.620535C10.7351 0.989379 10.7863 1.64023 10.4286 2.07417L6.16242 7.25001H17.8375L13.5714 2.07413C13.2137 1.64018 13.2649 0.989336 13.6857 0.620492C14.1065 0.251649 14.7376 0.304457 15.0952 0.738356L20.4625 7.25001H23.5C23.7761 7.25001 24 7.48088 24 7.76564V8.79689C24 9.08164 23.7761 9.31251 23.5 9.31251H22.7222L21.5729 17.8462C21.4356 18.8659 20.5902 19.625 19.5919 19.625H4.40808C3.40983 19.625 2.56442 18.8659 2.42708 17.8462L1.27779 9.31251H0.5C0.223875 9.31251 0 9.08164 0 8.79689V7.76564C0 7.48088 0.223875 7.25001 0.5 7.25001ZM4.40808 17.5625H19.5919L20.703 9.31251H3.297L4.40808 17.5625ZM11 11.7188V15.1563C11 15.7258 11.4477 16.1875 12 16.1875C12.5523 16.1875 13 15.7258 13 15.1563V11.7188C13 11.1492 12.5523 10.6875 12 10.6875C11.4477 10.6875 11 11.1492 11 11.7188ZM6.33333 11.7188V15.1563C6.33333 15.7258 6.78104 16.1875 7.33333 16.1875C7.88562 16.1875 8.33333 15.7258 8.33333 15.1563V11.7188C8.33333 11.1492 7.88562 10.6875 7.33333 10.6875C6.78104 10.6875 6.33333 11.1492 6.33333 11.7188ZM15.6667 11.7188V15.1563C15.6667 15.7258 16.1144 16.1875 16.6667 16.1875C17.219 16.1875 17.6667 15.7258 17.6667 15.1563V11.7188C17.6667 11.1492 17.219 10.6875 16.6667 10.6875C16.1144 10.6875 15.6667 11.1492 15.6667 11.7188Z" fill="black"/>
</svg>
