<svg viewBox="0 0 18 19" fill="none" xmlns="http://www.w3.org/2000/svg">
<path d="M5.94643 10.6875H4.33929C4.07411 10.6875 3.85714 10.4871 3.85714 10.2422V8.75781C3.85714 8.51289 4.07411 8.3125 4.33929 8.3125H5.94643C6.21161 8.3125 6.42857 8.51289 6.42857 8.75781V10.2422C6.42857 10.4871 6.21161 10.6875 5.94643 10.6875ZM10.2857 10.2422V8.75781C10.2857 8.51289 10.0687 8.3125 9.80357 8.3125H8.19643C7.93125 8.3125 7.71429 8.51289 7.71429 8.75781V10.2422C7.71429 10.4871 7.93125 10.6875 8.19643 10.6875H9.80357C10.0687 10.6875 10.2857 10.4871 10.2857 10.2422ZM14.1429 10.2422V8.75781C14.1429 8.51289 13.9259 8.3125 13.6607 8.3125H12.0536C11.7884 8.3125 11.5714 8.51289 11.5714 8.75781V10.2422C11.5714 10.4871 11.7884 10.6875 12.0536 10.6875H13.6607C13.9259 10.6875 14.1429 10.4871 14.1429 10.2422ZM10.2857 13.8047V12.3203C10.2857 12.0754 10.0687 11.875 9.80357 11.875H8.19643C7.93125 11.875 7.71429 12.0754 7.71429 12.3203V13.8047C7.71429 14.0496 7.93125 14.25 8.19643 14.25H9.80357C10.0687 14.25 10.2857 14.0496 10.2857 13.8047ZM6.42857 13.8047V12.3203C6.42857 12.0754 6.21161 11.875 5.94643 11.875H4.33929C4.07411 11.875 3.85714 12.0754 3.85714 12.3203V13.8047C3.85714 14.0496 4.07411 14.25 4.33929 14.25H5.94643C6.21161 14.25 6.42857 14.0496 6.42857 13.8047ZM14.1429 13.8047V12.3203C14.1429 12.0754 13.9259 11.875 13.6607 11.875H12.0536C11.7884 11.875 11.5714 12.0754 11.5714 12.3203V13.8047C11.5714 14.0496 11.7884 14.25 12.0536 14.25H13.6607C13.9259 14.25 14.1429 14.0496 14.1429 13.8047ZM18 4.15625V17.2188C18 18.2021 17.1362 19 16.0714 19H1.92857C0.863839 19 0 18.2021 0 17.2188V4.15625C0 3.17285 0.863839 2.375 1.92857 2.375H3.85714V0.445312C3.85714 0.200391 4.07411 0 4.33929 0H5.94643C6.21161 0 6.42857 0.200391 6.42857 0.445312V2.375H11.5714V0.445312C11.5714 0.200391 11.7884 0 12.0536 0H13.6607C13.9259 0 14.1429 0.200391 14.1429 0.445312V2.375H16.0714C17.1362 2.375 18 3.17285 18 4.15625ZM16.0714 16.9961V5.9375H1.92857V16.9961C1.92857 17.1186 2.03705 17.2188 2.16964 17.2188H15.8304C15.9629 17.2188 16.0714 17.1186 16.0714 16.9961Z" fill="black"/>
</svg>
