<svg viewBox="0 0 49 45" fill="none" xmlns="http://www.w3.org/2000/svg">
<path d="M22.7536 32.846C21.4895 31.5067 20.8574 29.8661 20.8574 27.9241C20.8574 25.9821 21.5227 24.3415 22.8534 23.0022C24.184 21.6629 25.7807 20.9933 27.6436 20.9933C29.573 20.9933 31.203 21.6629 32.5336 23.0022C33.8642 24.3415 34.5295 25.9821 34.5295 27.9241C34.5295 29.7991 33.8642 31.4062 32.5336 32.7455C31.203 34.0848 29.573 34.7545 27.6436 34.7545C25.7142 34.7545 24.0842 34.1183 22.7536 32.846ZM20.1589 35.4576C22.2213 37.5335 24.7162 38.5714 27.6436 38.5714C30.571 38.5714 33.0825 37.5335 35.1782 35.4576C37.2739 33.3817 38.3218 30.8706 38.3218 27.9241C38.3218 24.9777 37.2739 22.4498 35.1782 20.3404C33.0825 18.231 30.571 17.1763 27.6436 17.1763C24.7162 17.1763 22.2213 18.231 20.1589 20.3404C18.0964 22.4498 17.0652 24.9777 17.0652 27.9241C17.0652 30.8706 18.0964 33.3817 20.1589 35.4576ZM12.7739 19.2857V12.8571H19.1609V6.42857H34.0305L37.9226 10.7478H44.7088C45.8398 10.7478 46.8377 11.183 47.7026 12.0536C48.5676 12.9241 49 13.9286 49 15.067V40.7812C49 41.9197 48.5676 42.9074 47.7026 43.7444C46.8377 44.5815 45.8398 45 44.7088 45H10.6782C9.54718 45 8.54922 44.5815 7.68432 43.7444C6.81941 42.9074 6.38697 41.9197 6.38697 40.7812V19.2857H12.7739ZM6.38697 6.42857V0H10.6782V6.42857H17.0652V10.7478H10.6782V17.1763H6.38697V10.7478H0V6.42857H6.38697Z" fill="black"/>
</svg>
