<svg viewBox="0 0 26 24" fill="none" xmlns="http://www.w3.org/2000/svg">
<path d="M13 19.7188C9.63828 19.7188 6.90625 16.9867 6.90625 13.625C6.90625 10.2633 9.63828 7.53125 13 7.53125C16.3617 7.53125 19.0938 10.2633 19.0938 13.625C19.0938 16.9867 16.3617 19.7188 13 19.7188ZM13 9.15625C10.5371 9.15625 8.53125 11.1621 8.53125 13.625C8.53125 16.0879 10.5371 18.0938 13 18.0938C15.4629 18.0938 17.4688 16.0879 17.4688 13.625C17.4688 11.1621 15.4629 9.15625 13 9.15625ZM11.375 13.625C11.375 12.7312 12.1062 12 13 12C13.4469 12 13.8125 11.6344 13.8125 11.1875C13.8125 10.7406 13.4469 10.375 13 10.375C11.2074 10.375 9.75 11.8324 9.75 13.625C9.75 14.0719 10.1156 14.4375 10.5625 14.4375C11.0094 14.4375 11.375 14.0719 11.375 13.625ZM16.4684 2.25C16.6359 2.25 16.7883 2.35664 16.8492 2.51406L17.9715 5.5H23.5625C24.0094 5.5 24.375 5.86562 24.375 6.3125V20.9375C24.375 21.3844 24.0094 21.75 23.5625 21.75H2.4375C1.99063 21.75 1.625 21.3844 1.625 20.9375V6.3125C1.625 5.86562 1.99063 5.5 2.4375 5.5H8.03359L9.0543 2.77813C9.17109 2.46328 9.47578 2.25 9.81602 2.25H16.4684ZM16.4684 0.625H9.81602C8.80039 0.625 7.89141 1.25469 7.53594 2.2043L6.90625 3.875H2.4375C1.0918 3.875 0 4.9668 0 6.3125V20.9375C0 22.2832 1.0918 23.375 2.4375 23.375H23.5625C24.9082 23.375 26 22.2832 26 20.9375V6.3125C26 4.9668 24.9082 3.875 23.5625 3.875H19.0938L18.3676 1.94531C18.073 1.14805 17.3164 0.625 16.4684 0.625Z" fill="black"/>
</svg>
