<svg viewBox="0 0 34 30" fill="none" xmlns="http://www.w3.org/2000/svg">
<path d="M31.1738 17.6554L33.9642 5.46791C34.1656 4.58795 33.4918 3.75 32.5827 3.75H9.3977L8.85665 1.12441C8.72183 0.469981 8.1417 0 7.46873 0H1.41667C0.634254 0 0 0.62959 0 1.40625V2.34375C0 3.12041 0.634254 3.75 1.41667 3.75H5.54171L9.68829 23.8731C8.69627 24.4395 8.02778 25.5013 8.02778 26.7188C8.02778 28.5309 9.50772 30 11.3333 30C13.1589 30 14.6389 28.5309 14.6389 26.7188C14.6389 25.8004 14.2583 24.9706 13.6458 24.375H26.0208C25.4083 24.9706 25.0278 25.8004 25.0278 26.7188C25.0278 28.5309 26.5077 30 28.3333 30C30.159 30 31.6389 28.5309 31.6389 26.7188C31.6389 25.4196 30.8781 24.297 29.7749 23.7653L30.1005 22.3429C30.302 21.4629 29.6282 20.625 28.7191 20.625H12.875L12.4886 18.75H29.7923C30.4538 18.75 31.0272 18.2957 31.1738 17.6554Z" fill="black"/>
</svg>
