<svg viewBox="0 0 49 67" fill="none" xmlns="http://www.w3.org/2000/svg">
<path d="M47.2008 13.6189L36.4948 2.80366C35.3464 1.64351 33.7896 0.986084 32.169 0.986084H6.125C2.74349 0.998975 0 3.77046 0 7.18648V60.8115C0 64.2275 2.74349 66.999 6.125 66.999H42.875C46.2565 66.999 49 64.2275 49 60.8115V18.0017C49 16.3646 48.3492 14.7791 47.2008 13.6189ZM44.3169 16.5451C44.5849 16.8158 44.7635 17.138 44.8529 17.499H32.6667V5.18843C33.024 5.27866 33.343 5.45913 33.6109 5.72983L44.3169 16.5451ZM42.875 62.874H6.125C5.00208 62.874 4.08333 61.9459 4.08333 60.8115V7.18648C4.08333 6.0521 5.00208 5.12397 6.125 5.12397H28.5833V18.5302C28.5833 20.2447 29.9487 21.624 31.6458 21.624H44.9167V60.8115C44.9167 61.9459 43.9979 62.874 42.875 62.874ZM36.75 31.4209V32.4521C36.75 33.3029 36.0609 33.999 35.2188 33.999H13.7813C12.9391 33.999 12.25 33.3029 12.25 32.4521V31.4209C12.25 30.5701 12.9391 29.874 13.7813 29.874H35.2188C36.0609 29.874 36.75 30.5701 36.75 31.4209ZM36.75 39.6709V40.7021C36.75 41.5529 36.0609 42.249 35.2188 42.249H13.7813C12.9391 42.249 12.25 41.5529 12.25 40.7021V39.6709C12.25 38.8201 12.9391 38.124 13.7813 38.124H35.2188C36.0609 38.124 36.75 38.8201 36.75 39.6709ZM36.75 47.9209V48.9521C36.75 49.8029 36.0609 50.499 35.2188 50.499H13.7813C12.9391 50.499 12.25 49.8029 12.25 48.9521V47.9209C12.25 47.0701 12.9391 46.374 13.7813 46.374H35.2188C36.0609 46.374 36.75 47.0701 36.75 47.9209Z" fill="black"/>
</svg>
