<svg viewBox="0 0 17 15" fill="none" xmlns="http://www.w3.org/2000/svg">
<path d="M9.11979 3.10547C9.45625 2.90039 9.68056 2.52832 9.68056 2.10938C9.68056 1.46191 9.15226 0.9375 8.5 0.9375C7.84774 0.9375 7.31944 1.46191 7.31944 2.10938C7.31944 2.53125 7.54375 2.90039 7.88021 3.10547L6.18906 6.46289C5.92049 6.99609 5.22396 7.14844 4.75469 6.77637L2.125 4.6875C2.27257 4.49121 2.36111 4.24805 2.36111 3.98438C2.36111 3.33691 1.83281 2.8125 1.18056 2.8125C0.528299 2.8125 0 3.33691 0 3.98438C0 4.63184 0.528299 5.15625 1.18056 5.15625C1.18646 5.15625 1.19531 5.15625 1.20122 5.15625L2.55 12.5215C2.71233 13.4121 3.49444 14.0625 4.40937 14.0625H12.5906C13.5026 14.0625 14.2847 13.415 14.45 12.5215L15.7988 5.15625C15.8047 5.15625 15.8135 5.15625 15.8194 5.15625C16.4717 5.15625 17 4.63184 17 3.98438C17 3.33691 16.4717 2.8125 15.8194 2.8125C15.1672 2.8125 14.6389 3.33691 14.6389 3.98438C14.6389 4.24805 14.7274 4.49121 14.875 4.6875L12.2453 6.77637C11.776 7.14844 11.0795 6.99609 10.8109 6.46289L9.11979 3.10547Z" fill="black"/>
</svg>
