<svg viewBox="0 0 37 33" fill="none" xmlns="http://www.w3.org/2000/svg">
<path d="M4.11111 0C1.84358 0 0 1.8498 0 4.125V22.6875C0 24.9627 1.84358 26.8125 4.11111 26.8125H15.4167L14.7293 28.875H10.2778C9.1408 28.875 8.22222 29.7967 8.22222 30.9375C8.22222 32.0783 9.1408 33 10.2778 33H26.7222C27.8592 33 28.7778 32.0783 28.7778 30.9375C28.7778 29.7967 27.8592 28.875 26.7222 28.875H22.2707L21.5833 26.8125H32.8889C35.1564 26.8125 37 24.9627 37 22.6875V4.125C37 1.8498 35.1564 0 32.8889 0H4.11111ZM32.8889 4.125V22.6875H4.11111V4.125H32.8889Z" fill="black"/>
</svg>
