<svg width="26" height="26" viewBox="0 0 26 26" fill="none" xmlns="http://www.w3.org/2000/svg">
<path d="M26 2.71875V22.6562C26 24.1578 24.7528 25.375 23.2143 25.375H2.78571C1.24719 25.375 0 24.1578 0 22.6562V2.71875C0 1.21721 1.24719 0 2.78571 0H23.2143C24.7528 0 26 1.21721 26 2.71875ZM23.2143 22.3164V3.05859C23.2143 2.96846 23.1776 2.88202 23.1123 2.81829C23.047 2.75455 22.9584 2.71875 22.8661 2.71875H3.13393C3.04158 2.71875 2.95301 2.75455 2.8877 2.81829C2.8224 2.88202 2.78571 2.96846 2.78571 3.05859V22.3164C2.78571 22.4065 2.8224 22.493 2.8877 22.5567C2.95301 22.6204 3.04158 22.6562 3.13393 22.6562H22.8661C22.9584 22.6562 23.047 22.6204 23.1123 22.5567C23.1776 22.493 23.2143 22.4065 23.2143 22.3164ZM15.4375 18.125C15.4375 19.4367 14.344 20.5039 13 20.5039C11.656 20.5039 10.5625 19.4367 10.5625 18.125C10.5625 16.8133 11.656 15.7461 13 15.7461C14.344 15.7461 15.4375 16.8133 15.4375 18.125ZM10.7151 6.15112L11.1098 13.8542C11.1283 14.216 11.4343 14.5 11.8053 14.5H14.1947C14.5657 14.5 14.8717 14.216 14.8902 13.8542L15.2849 6.15112C15.3048 5.7629 14.9876 5.4375 14.5893 5.4375H11.4107C11.0124 5.4375 10.6952 5.7629 10.7151 6.15112Z" fill="#FF8A00"/>
</svg>
