<svg viewBox="0 0 42 42" fill="none" xmlns="http://www.w3.org/2000/svg">
<path d="M38.0625 10.5H22.3125L17.8311 6.01863C17.3389 5.52645 16.6712 5.25 15.9748 5.25H3.9375C1.76285 5.25 0 7.01285 0 9.1875V32.8125C0 34.9871 1.76285 36.75 3.9375 36.75H38.0625C40.2371 36.75 42 34.9871 42 32.8125V14.4375C42 12.2629 40.2371 10.5 38.0625 10.5ZM38.0625 32.8125H3.9375V9.1875H15.4317L19.9131 13.6689C20.4053 14.1611 21.073 14.4375 21.7695 14.4375H38.0625V32.8125ZM20.3438 17.0625C19.6186 17.0625 19.0312 17.6498 19.0312 18.375V21.6562H15.75C15.0248 21.6562 14.4375 22.2436 14.4375 22.9688V24.2812C14.4375 25.0064 15.0248 25.5938 15.75 25.5938H19.0312V28.875C19.0312 29.6002 19.6186 30.1875 20.3438 30.1875H21.6562C22.3814 30.1875 22.9688 29.6002 22.9688 28.875V25.5938H26.25C26.9752 25.5938 27.5625 25.0064 27.5625 24.2812V22.9688C27.5625 22.2436 26.9752 21.6562 26.25 21.6562H22.9688V18.375C22.9688 17.6498 22.3814 17.0625 21.6562 17.0625H20.3438Z" fill="black"/>
</svg>
