<svg viewBox="0 0 24 24" fill="none" xmlns="http://www.w3.org/2000/svg">
<path d="M23.3423 8.27921L22.2556 7.19241C21.6175 6.55444 20.6884 6.38049 19.8915 6.67055L17.331 4.11005C17.6211 3.31327 17.4472 2.38407 16.8091 1.746L15.7223 0.659723C14.8431 -0.219512 13.4197 -0.219652 12.5403 0.659723L7.68371 5.51588C6.80644 6.39314 6.80644 7.82058 7.68371 8.6979L8.77046 9.78464C9.40857 10.4228 10.3376 10.5968 11.1346 10.3065L11.6193 10.7913L8.96888 13.4407C7.93664 12.4085 6.53766 12.5384 5.71116 13.3649L0.659723 18.4178C-0.219512 19.297 -0.219652 20.7204 0.659723 21.5998L2.40174 23.3423C3.27896 24.2195 4.70635 24.2196 5.58371 23.3423L10.6356 18.2894C11.4518 17.4733 11.6036 16.0754 10.5598 15.0316L13.2103 12.3823L13.695 12.867C13.4049 13.6638 13.5788 14.593 14.2169 15.2311L15.4083 16.4225C16.2279 17.2421 17.5614 17.2421 18.381 16.4225L23.3423 11.4612C24.2195 10.5839 24.2195 9.15647 23.3423 8.27921ZM3.99375 21.7523L3.99277 21.7513L2.25024 20.0088L7.3021 14.9559L9.04458 16.6984L3.99375 21.7523ZM16.8946 14.7269L15.8079 13.6401L16.5013 12.9467L11.0549 7.50024L10.3615 8.19361L9.27474 7.10686L14.1314 2.25024L15.2182 3.33699L14.4299 4.12524L19.8763 9.57169L20.6646 8.78344L21.7513 9.87019L16.8946 14.7269Z" fill="black"/>
</svg>
