<svg viewBox="0 0 19 17" fill="none" xmlns="http://www.w3.org/2000/svg">
<path d="M15.2 16.0205H18.05C18.525 16.0205 19 15.5628 19 15.1051V5.49275C19 5.03502 18.525 4.57729 18.05 4.57729H15.2C14.725 4.57729 14.25 5.03502 14.25 5.49275V15.1051C14.25 15.5628 14.725 16.0205 15.2 16.0205ZM0.95 16.0205H3.8C4.275 16.0205 4.75 15.5628 4.75 15.1051V10.07C4.75 9.61231 4.275 9.15458 3.8 9.15458H0.95C0.475 9.15458 0 9.61231 0 10.07V15.1051C0 15.5628 0.475 16.0205 0.95 16.0205ZM8.075 16.0205H10.925C11.4 16.0205 11.875 15.5628 11.875 15.1051V0.915458C11.875 0.457729 11.4 0 10.925 0H8.075C7.6 0 7.125 0.457729 7.125 0.915458V15.1051C7.125 15.5628 7.6 16.0205 8.075 16.0205Z" fill="black"/>
</svg>
