<svg viewBox="0 0 27 21" fill="none" xmlns="http://www.w3.org/2000/svg">
<path d="M14.3438 2.90627V5.62736H9.28125C7.88379 5.62736 6.75 6.76115 6.75 8.15861V12.8309C6.75 14.2283 7.88379 15.3621 9.28125 15.3621H14.3438V18.0832C14.3438 20.3297 17.0701 21.4688 18.6627 19.8709L26.2564 12.2824C27.2426 11.2963 27.2426 9.69318 26.2564 8.70178L18.6627 1.10803C17.0754 -0.46873 14.3438 0.654512 14.3438 2.90627ZM24.4688 10.5L16.875 18.0938V12.8362H9.28125V8.16389H16.875V2.90627L24.4688 10.5ZM5.0625 0.375019H9.49219C9.84023 0.375019 10.125 0.659785 10.125 1.00783V2.27346C10.125 2.6215 9.84023 2.90627 9.49219 2.90627H5.0625C3.66504 2.90627 2.53125 4.04006 2.53125 5.43752V15.5625C2.53125 16.96 3.66504 18.0938 5.0625 18.0938H9.49219C9.84023 18.0938 10.125 18.3785 10.125 18.7266V19.9922C10.125 20.3403 9.84023 20.625 9.49219 20.625H5.0625C2.26758 20.625 0 18.3574 0 15.5625V5.43752C0 2.6426 2.26758 0.375019 5.0625 0.375019Z" fill="black"/>
</svg>
