<svg viewBox="0 0 116 88" fill="none" xmlns="http://www.w3.org/2000/svg">
<path d="M105.125 0.5H10.875C4.87109 0.5 0 5.37109 0 11.375V76.625C0 82.6289 4.87109 87.5 10.875 87.5H105.125C111.129 87.5 116 82.6289 116 76.625V11.375C116 5.37109 111.129 0.5 105.125 0.5ZM10.875 7.75H105.125C107.119 7.75 108.75 9.38125 108.75 11.375V20.7547C103.788 24.9461 96.6969 30.7234 74.6297 48.2367C70.8008 51.2727 63.2562 58.5906 58 58.5C52.7438 58.5906 45.1766 51.2727 41.3703 48.2367C19.3031 30.7234 12.2117 24.9461 7.25 20.7547V11.375C7.25 9.38125 8.88125 7.75 10.875 7.75ZM105.125 80.25H10.875C8.88125 80.25 7.25 78.6188 7.25 76.625V30.1797C12.4156 34.4164 20.5719 40.9641 36.8617 53.9008C41.5062 57.6164 49.7078 65.7953 58 65.75C66.2469 65.818 74.3805 57.707 79.1383 53.9008C95.4281 40.9641 103.584 34.4164 108.75 30.1797V76.625C108.75 78.6188 107.119 80.25 105.125 80.25Z" fill="black"/>
</svg>
