<svg viewBox="0 0 30 30" fill="none" xmlns="http://www.w3.org/2000/svg">
<path fill-rule="evenodd" clip-rule="evenodd" d="M28 15C28 22.1797 22.1797 28 15 28C7.82031 28 2 22.1797 2 15C2 7.8203 7.82031 2 15 2C22.1797 2 28 7.8203 28 15ZM30 15C30 23.2843 23.2843 30 15 30C6.71573 30 0 23.2843 0 15C0 6.71573 6.71573 0 15 0C23.2843 0 30 6.71573 30 15ZM6 9.75C6 8.78349 6.75549 8 7.6875 8H22.3125C23.2445 8 24 8.78349 24 9.75V20.25C24 21.2165 23.2445 22 22.3125 22H7.6875C6.75549 22 6 21.2165 6 20.25V9.75ZM22.3125 11.2377V9.75H7.6875V11.2377C8.47589 11.9035 9.73288 12.9388 12.4191 15.1201C12.5185 15.2013 12.6344 15.3015 12.7622 15.4122C13.3951 15.9598 14.3212 16.7612 15 16.7498C15.6789 16.7611 16.6046 15.96 17.2376 15.4123C17.3655 15.3016 17.4814 15.2013 17.5809 15.1201C20.2675 12.9385 21.5242 11.9034 22.3125 11.2377ZM7.6875 13.4833V20.25H22.3125V13.4833C21.5069 14.1487 20.3642 15.0827 18.623 16.4967C18.5092 16.5896 18.3844 16.6972 18.2496 16.8135C17.4454 17.5072 16.2862 18.5072 15 18.5C13.7082 18.5072 12.5363 17.4937 11.7435 16.8082C11.6101 16.6929 11.4874 16.5868 11.3767 16.4964C9.63547 15.0824 8.49307 14.1487 7.6875 13.4833Z" fill="black"/>
</svg>
