<svg viewBox="0 0 20 23" fill="none" xmlns="http://www.w3.org/2000/svg">
<path d="M19.3723 2.96215L17.0562 0.631602C16.6544 0.22722 16.1094 2.68181e-05 15.5411 0L7.85714 0C7.28882 0 6.74378 0.227176 6.34191 0.631551C5.94005 1.03593 5.71429 1.58438 5.71429 2.15625V4.3125H2.14286C1.57454 4.3125 1.02949 4.53968 0.627628 4.94405C0.225765 5.34843 0 5.89688 0 6.46875L0 20.8438C0 21.4156 0.225765 21.9641 0.627628 22.3685C1.02949 22.7728 1.57454 23 2.14286 23H12.1429C12.7112 23 13.2562 22.7728 13.6581 22.3685C14.0599 21.9641 14.2857 21.4156 14.2857 20.8438V18.6875H17.8571C18.4255 18.6875 18.9705 18.4603 19.3724 18.056C19.7742 17.6516 20 17.1031 20 16.5312V4.4868C20 3.91493 19.7742 3.3665 19.3723 2.96215ZM15.7143 2.33055L17.6839 4.3125H15.7143V2.33055ZM12.1429 20.5742C12.1429 20.6457 12.1146 20.7143 12.0644 20.7648C12.0142 20.8154 11.946 20.8438 11.875 20.8438H2.41071C2.33967 20.8438 2.27154 20.8154 2.22131 20.7648C2.17108 20.7143 2.14286 20.6457 2.14286 20.5742V6.73828C2.14286 6.6668 2.17108 6.59824 2.22131 6.54769C2.27154 6.49715 2.33967 6.46875 2.41071 6.46875H5.71429V16.5312C5.71429 17.1031 5.94005 17.6516 6.34191 18.056C6.74378 18.4603 7.28882 18.6875 7.85714 18.6875H12.1429V20.5742ZM17.8571 16.2617C17.8571 16.3332 17.8289 16.4018 17.7787 16.4523C17.7285 16.5029 17.6603 16.5312 17.5893 16.5312H8.125C8.05396 16.5312 7.98583 16.5029 7.9356 16.4523C7.88536 16.4018 7.85714 16.3332 7.85714 16.2617V2.42578C7.85714 2.3543 7.88536 2.28574 7.9356 2.23519C7.98583 2.18465 8.05396 2.15625 8.125 2.15625H13.5714V5.03125C13.5714 5.4125 13.7219 5.77813 13.9898 6.04772C14.2578 6.3173 14.6211 6.46875 15 6.46875H17.8571V16.2617ZM14.0478 8.20543C14.0477 8.12604 14.0162 8.04994 13.9604 7.99385C13.9046 7.93776 13.8289 7.90625 13.75 7.90625H11.9643C11.8854 7.90625 11.8097 7.93776 11.7539 7.99385C11.6981 8.04994 11.6666 8.12604 11.6665 8.20543V10.3019H9.58348C9.50451 10.3019 9.42877 10.3335 9.37293 10.3897C9.31709 10.4459 9.28571 10.5221 9.28571 10.6016V12.3984C9.28583 12.4778 9.31726 12.5539 9.37309 12.61C9.42892 12.6661 9.50459 12.6976 9.58348 12.6976H11.6665V14.7941C11.6665 14.8736 11.6979 14.9498 11.7537 15.006C11.8096 15.0622 11.8853 15.0938 11.9643 15.0938H13.75C13.7891 15.0938 13.8278 15.086 13.864 15.0709C13.9001 15.0559 13.9329 15.0338 13.9606 15.006C13.9882 14.9782 14.0101 14.9451 14.0251 14.9088C14.0401 14.8724 14.0478 14.8335 14.0478 14.7941V12.6976H16.1308C16.2097 12.6976 16.2854 12.6661 16.3412 12.61C16.397 12.5539 16.4285 12.4778 16.4286 12.3984V10.6016C16.4286 10.5221 16.3972 10.4459 16.3414 10.3897C16.2855 10.3335 16.2098 10.3019 16.1308 10.3019H14.0478V8.20543Z" fill="black"/>
</svg>
