<svg viewBox="0 0 20 18" fill="none" xmlns="http://www.w3.org/2000/svg">
<path d="M18.8889 6.49969V1.12535C18.8889 0.817734 18.6465 0 17.7781 0H17.7778C17.5306 0 17.2851 0.0836719 17.084 0.246797L14.1316 2.63848C12.6486 3.83871 10.7868 4.5 8.88889 4.5H2.22222C0.994792 4.5 0 5.50723 0 6.75V10.125C0 11.3678 0.994792 12.375 2.22222 12.375L2.20556 13.5C2.20556 14.8982 2.52708 16.2193 3.09306 17.4002C3.27326 17.7761 3.66667 18 4.07917 18H7.76944C8.67396 18 9.21701 16.9509 8.66875 16.2225C8.09931 15.4659 7.76076 14.5223 7.76076 13.5C7.76076 13.1094 7.81701 12.7339 7.91389 12.375H8.88889C10.7868 12.375 12.6486 13.0363 14.1313 14.2365L17.0837 16.6282C17.2806 16.7878 17.5252 16.8748 17.7774 16.875C18.6427 16.875 18.8885 16.0741 18.8885 15.75V10.3757C19.55 9.98578 19.9997 9.26859 19.9997 8.43785C20 7.60676 19.5503 6.88957 18.8889 6.49969ZM4.43507 16.3125C4.06146 15.4178 3.87222 14.4735 3.87222 13.5C3.87222 13.0001 3.93194 12.6091 3.9625 12.375H6.21632C6.14375 12.7512 6.0941 13.1277 6.0941 13.5C6.0941 14.4921 6.32257 15.4477 6.76111 16.3125H4.43507ZM8.33333 10.6875H2.22222C1.91597 10.6875 1.66667 10.4351 1.66667 10.125V6.75C1.66667 6.43992 1.91597 6.1875 2.22222 6.1875H8.33333V10.6875ZM17.2222 14.5793L15.1722 12.9185C13.6861 11.7155 11.8809 10.9719 10 10.7582V6.11684C11.8809 5.90309 13.6861 5.15953 15.1726 3.95613L17.2222 2.2957V14.5793Z" fill="black"/>
</svg>
