<svg viewBox="0 0 42 40" version="1.1" xmlns="http://www.w3.org/2000/svg" xmlns:xlink="http://www.w3.org/1999/xlink">
<path d="M6,6 L6,1 C6,0.44771525 6.44771525,2.23917743e-16 7,1.2246468e-16 L9,2.46519033e-32 C9.55228475,-1.01453063e-16 10,0.44771525 10,1 L10,6 L15,6 C15.5522847,6 16,6.44771525 16,7 L16,9 C16,9.55228475 15.5522847,10 15,10 L10,10 L10,15 C10,15.5522847 9.55228475,16 9,16 L7,16 C6.44771525,16 6,15.5522847 6,15 L6,10 L1,10 C0.44771525,10 6.76353751e-17,9.55228475 0,9 L0,7 C-6.76353751e-17,6.44771525 0.44771525,6 1,6 L6,6 Z M22,6 L41,6 C41.5522847,6 42,6.44771525 42,7 L42,9 C42,9.55228475 41.5522847,10 41,10 L22,10 C21.4477153,10 21,9.55228475 21,9 L21,7 C21,6.44771525 21.4477153,6 22,6 Z M1,21 L41,21 C41.5522847,21 42,21.4477153 42,22 L42,24 C42,24.5522847 41.5522847,25 41,25 L1,25 C0.44771525,25 6.76353751e-17,24.5522847 0,24 L0,22 C-6.76353751e-17,21.4477153 0.44771525,21 1,21 Z M1,36 L41,36 C41.5522847,36 42,36.4477153 42,37 L42,39 C42,39.5522847 41.5522847,40 41,40 L1,40 C0.44771525,40 6.76353751e-17,39.5522847 0,39 L0,37 C-6.76353751e-17,36.4477153 0.44771525,36 1,36 Z" fill="black" />
</svg>
