<svg viewBox="0 0 16 24" fill="none" xmlns="http://www.w3.org/2000/svg">
<path d="M15.2727 9H14.5455C14.1436 9 13.8182 9.33562 13.8182 9.75V12C13.8182 15.5063 10.8868 18.3197 7.41864 17.9709C4.39591 17.6667 2.18182 14.8645 2.18182 11.7328V9.75C2.18182 9.33562 1.85636 9 1.45455 9H0.727273C0.325455 9 0 9.33562 0 9.75V11.6325C0 15.8344 2.90773 19.5802 6.90909 20.1492V21.75H4.36364C3.96182 21.75 3.63636 22.0856 3.63636 22.5V23.25C3.63636 23.6644 3.96182 24 4.36364 24H11.6364C12.0382 24 12.3636 23.6644 12.3636 23.25V22.5C12.3636 22.0856 12.0382 21.75 11.6364 21.75H9.09091V20.167C12.9868 19.6158 16 16.1672 16 12V9.75C16 9.33562 15.6745 9 15.2727 9ZM8 16.5C10.41 16.5 12.3636 14.4853 12.3636 12V4.5C12.3636 2.01469 10.41 0 8 0C5.59 0 3.63636 2.01469 3.63636 4.5V12C3.63636 14.4853 5.59 16.5 8 16.5ZM5.81818 4.5C5.81818 3.25922 6.79682 2.25 8 2.25C9.20318 2.25 10.1818 3.25922 10.1818 4.5H8.36364C8.16273 4.5 8 4.66781 8 4.875V5.625C8 5.83219 8.16273 6 8.36364 6H10.1818V7.5H8.36364C8.16273 7.5 8 7.66781 8 7.875V8.625C8 8.83219 8.16273 9 8.36364 9H10.1818V10.5H8.36364C8.16273 10.5 8 10.6678 8 10.875V11.625C8 11.8322 8.16273 12 8.36364 12H10.1818C10.1818 13.2408 9.20318 14.25 8 14.25C6.79682 14.25 5.81818 13.2408 5.81818 12V4.5Z" fill="black"/>
</svg>
