<svg viewBox="0 0 22 16" fill="none" xmlns="http://www.w3.org/2000/svg">
<path d="M21.0833 0.5H4.27778C3.48112 0.5 2.80183 1.02254 2.54956 1.75H0.916667C0.410399 1.75 0 2.16973 0 2.6875V13.3125C0 14.5206 0.957611 15.5 2.13889 15.5H21.0833C21.5896 15.5 22 15.0803 22 14.5625V1.4375C22 0.919727 21.5896 0.5 21.0833 0.5ZM1.83333 13.3125V3.625H2.44444V13.3125C2.44444 13.4848 2.30736 13.625 2.13889 13.625C1.97041 13.625 1.83333 13.4848 1.83333 13.3125ZM20.1667 13.625H4.2557C4.26999 13.5229 4.27778 13.4186 4.27778 13.3125V2.375H20.1667V13.625ZM6.56944 8.9375H11.7639C12.017 8.9375 12.2222 8.72762 12.2222 8.46875V4.71875C12.2222 4.45988 12.017 4.25 11.7639 4.25H6.56944C6.31633 4.25 6.11111 4.45988 6.11111 4.71875V8.46875C6.11111 8.72762 6.31633 8.9375 6.56944 8.9375ZM7.63889 5.8125H10.6944V7.375H7.63889V5.8125ZM6.11111 11.2812V10.3438C6.11111 10.0849 6.31633 9.875 6.56944 9.875H11.7639C12.017 9.875 12.2222 10.0849 12.2222 10.3438V11.2812C12.2222 11.5401 12.017 11.75 11.7639 11.75H6.56944C6.31633 11.75 6.11111 11.5401 6.11111 11.2812ZM13.4444 11.2812V10.3438C13.4444 10.0849 13.6497 9.875 13.9028 9.875H17.875C18.1281 9.875 18.3333 10.0849 18.3333 10.3438V11.2812C18.3333 11.5401 18.1281 11.75 17.875 11.75H13.9028C13.6497 11.75 13.4444 11.5401 13.4444 11.2812ZM13.4444 5.65625V4.71875C13.4444 4.45988 13.6497 4.25 13.9028 4.25H17.875C18.1281 4.25 18.3333 4.45988 18.3333 4.71875V5.65625C18.3333 5.91512 18.1281 6.125 17.875 6.125H13.9028C13.6497 6.125 13.4444 5.91512 13.4444 5.65625ZM13.4444 8.46875V7.53125C13.4444 7.27238 13.6497 7.0625 13.9028 7.0625H17.875C18.1281 7.0625 18.3333 7.27238 18.3333 7.53125V8.46875C18.3333 8.72762 18.1281 8.9375 17.875 8.9375H13.9028C13.6497 8.9375 13.4444 8.72762 13.4444 8.46875Z" fill="black"/>
</svg>
