<svg viewBox="0 0 20 20" fill="none" xmlns="http://www.w3.org/2000/svg">
  <path d="M19.267 2.19766L17.8018 0.732422C17.3135 0.244141 16.6737 0 16.0338 0C15.394 0 14.7541 0.244141 14.2663 0.732031L11.3565 3.6418L9.99906 4.99922L0.501016 14.4969L0.00492181 18.9586C-0.0575782 19.5203 0.385 20 0.934609 20C0.969375 20 1.00453 19.998 1.03969 19.9941L5.49828 19.5016L14.9998 10L16.3569 8.64297L19.2666 5.7332C20.2432 4.75664 20.2432 3.17383 19.267 2.19766ZM4.63773 17.7105L1.99789 18.002L2.29203 15.3578L11.3248 6.325L12.5366 5.11328L14.8858 7.4625L13.6741 8.67422L4.63773 17.7105ZM17.9409 4.40703L16.2112 6.13672L13.8623 3.7875L15.592 2.05781C15.7514 1.89844 15.9373 1.87461 16.0338 1.87461C16.1303 1.87461 16.3166 1.89844 16.4756 2.05781L17.9409 3.52305C18.1846 3.76719 18.1846 4.16367 17.9409 4.40703Z" fill="black"/>
  <path d="M19.267 2.19766L17.8018 0.732422C17.3135 0.244141 16.6737 0 16.0338 0C15.394 0 14.7541 0.244141 14.2663 0.732031L11.3565 3.6418L9.99906 4.99922L0.501016 14.4969L0.00492181 18.9586C-0.0575782 19.5203 0.385 20 0.934609 20C0.969375 20 1.00453 19.998 1.03969 19.9941L5.49828 19.5016L14.9998 10L16.3569 8.64297L19.2666 5.7332C20.2432 4.75664 20.2432 3.17383 19.267 2.19766ZM4.63773 17.7105L1.99789 18.002L2.29203 15.3578L11.3248 6.325L12.5366 5.11328L14.8858 7.4625L13.6741 8.67422L4.63773 17.7105ZM17.9409 4.40703L16.2112 6.13672L13.8623 3.7875L15.592 2.05781C15.7514 1.89844 15.9373 1.87461 16.0338 1.87461C16.1303 1.87461 16.3166 1.89844 16.4756 2.05781L17.9409 3.52305C18.1846 3.76719 18.1846 4.16367 17.9409 4.40703Z" fill="black"/>
</svg>
