<svg viewBox="0 0 22 22" fill="none" xmlns="http://www.w3.org/2000/svg">
  <path d="M12.1098 7.16473L14.8353 9.89018C14.9482 10.0031 14.9482 10.1897 14.8353 10.3076L8.17143 16.9714L5.36741 17.2808C4.9942 17.3201 4.675 17.0058 4.71429 16.6277L5.02366 13.8237L11.6875 7.15982C11.8054 7.05179 11.992 7.05179 12.1098 7.16473ZM16.942 6.53616L15.4638 5.05804C15.0022 4.59643 14.2558 4.59643 13.7991 5.05804L12.6647 6.19241C12.5518 6.30536 12.5518 6.49196 12.6647 6.60982L15.3902 9.33527C15.5031 9.44821 15.6897 9.44821 15.8076 9.33527L16.942 8.20089C17.3987 7.7442 17.3987 6.99777 16.942 6.53616ZM22 2.35714V19.6429C22 20.9442 20.9442 22 19.6429 22H2.35714C1.0558 22 0 20.9442 0 19.6429V2.35714C0 1.0558 1.0558 0 2.35714 0H19.6429C20.9442 0 22 1.0558 22 2.35714ZM19.6429 19.3482V2.65179C19.6429 2.48973 19.5103 2.35714 19.3482 2.35714H2.65179C2.48973 2.35714 2.35714 2.48973 2.35714 2.65179V19.3482C2.35714 19.5103 2.48973 19.6429 2.65179 19.6429H19.3482C19.5103 19.6429 19.6429 19.5103 19.6429 19.3482Z" fill="black"/>
</svg>
