<svg viewBox="0 0 30 30" fill="none" xmlns="http://www.w3.org/2000/svg">
<path fill-rule="evenodd" clip-rule="evenodd" d="M28 15C28 22.1797 22.1797 28 15 28C7.82031 28 2 22.1797 2 15C2 7.8203 7.82031 2 15 2C22.1797 2 28 7.8203 28 15ZM30 15C30 23.2843 23.2843 30 15 30C6.7157 30 0 23.2843 0 15C0 6.71573 6.7157 0 15 0C23.2843 0 30 6.71573 30 15ZM18.947 7.03751L21.8907 7.71562C22.5439 7.86563 23.0001 8.44063 23.0001 9.10938C23.0001 16.8031 16.7595 23 9.10638 22.9969C8.43762 22.9969 7.86261 22.5406 7.71265 21.8875L7.03448 18.9438C6.88135 18.2688 7.22827 17.5813 7.86572 17.3094L11.0408 15.95C11.622 15.7 12.3095 15.8688 12.7095 16.3594L13.7314 17.6094C15.3689 16.7188 16.7189 15.3688 17.6126 13.7313L16.3626 12.7094C15.872 12.3094 15.7032 11.6219 15.9532 11.0406L17.3126 7.86876C17.5845 7.23125 18.272 6.88126 18.947 7.03751ZM8.51263 18.6656L9.16577 21.5C15.9658 21.4688 21.4689 15.9656 21.5001 9.16563L18.6658 8.51251L17.3501 11.5813L19.4783 13.3219C18.0283 16.4156 16.4095 18.0281 13.322 19.4781L11.5814 17.35L8.51263 18.6656Z" fill="black"/>
</svg>
