<svg viewBox="0 0 30 30" fill="none" xmlns="http://www.w3.org/2000/svg">
<path fill-rule="evenodd" clip-rule="evenodd" d="M28 15C28 22.1797 22.1797 28 15 28C7.82031 28 2 22.1797 2 15C2 7.8203 7.82031 2 15 2C22.1797 2 28 7.8203 28 15ZM30 15C30 23.2843 23.2843 30 15 30C6.7157 30 0 23.2843 0 15C0 6.71573 6.7157 0 15 0C23.2843 0 30 6.71573 30 15ZM22 12.75C22 9.02393 18.8681 6 15 6C11.1359 6 8 9.02003 8 12.75C8 14.8002 8.58673 15.6923 11.3595 19.9076C11.9673 20.8317 12.6803 21.9155 13.5151 23.2063C14.1992 24.2639 15.8 24.2652 16.4849 23.2063C17.3197 21.9156 18.0326 20.8318 18.6404 19.9077C21.4117 15.6948 22 14.8004 22 12.75ZM17.2811 18.8191C16.6572 19.7685 15.9053 20.9127 15 22.3125C14.0918 20.9083 13.3386 19.7614 12.7143 18.8107C10.1097 14.8449 9.75 14.2971 9.75 12.75C9.75 9.95406 12.1005 7.6875 15 7.6875C17.8995 7.6875 20.25 9.95406 20.25 12.75C20.25 14.3008 19.8583 14.8969 17.2811 18.8191ZM15 9.9375C16.6108 9.9375 17.9167 11.1967 17.9167 12.75C17.9167 14.3033 16.6108 15.5625 15 15.5625C13.3892 15.5625 12.0833 14.3033 12.0833 12.75C12.0833 11.1967 13.3892 9.9375 15 9.9375Z" fill="black"/>
</svg>
