<svg viewBox="0 0 15 20" fill="none" xmlns="http://www.w3.org/2000/svg">
<path d="M7.5 0C3.375 0 0 3.375 0 7.5C0 10.5 1 11.375 6.75 19.625C6.9375 19.875 7.21875 20 7.5 20C7.78125 20 8.0625 19.875 8.25 19.625C14 11.375 15 10.5 15 7.5C15 3.375 11.625 0 7.5 0ZM7.5 17.4254C6.93711 16.6223 6.42539 15.8973 5.96055 15.2383C2.2793 10.0188 1.875 9.38281 1.875 7.5C1.875 4.39844 4.39844 1.875 7.5 1.875C10.6016 1.875 13.125 4.39844 13.125 7.5C13.125 9.38281 12.7207 10.0188 9.03945 15.2379C8.57461 15.8969 8.06289 16.6223 7.5 17.4254ZM11.4035 6.00664L10.4969 5.09258C10.3465 4.94102 10.102 4.94023 9.95078 5.09023L6.53828 8.47539L5.05859 6.98359C4.90859 6.83203 4.66367 6.83125 4.5125 6.98125L3.59844 7.88789C3.44688 8.03828 3.44609 8.28281 3.59609 8.43398L6.2543 11.1137C6.40469 11.2652 6.64922 11.266 6.80039 11.116L11.4012 6.55234C11.5527 6.40234 11.5539 6.15781 11.4035 6.00664Z" fill="black"/>
</svg>
