<svg viewBox="0 0 42 42" fill="none" xmlns="http://www.w3.org/2000/svg">
<path d="M41.7949 15.143L37.6441 2.69062C37.1109 1.08281 35.6098 0 33.9117 0H8.08828C6.39023 0 4.88906 1.08281 4.35586 2.69062L0.205078 15.143C0.0738281 15.5449 0 15.9633 0 16.3898V38.0625C0 40.2363 1.76367 42 3.9375 42H38.0625C40.2363 42 42 40.2363 42 38.0625V16.3898C42 15.9633 41.9344 15.5449 41.7949 15.143ZM2.625 16.3898C2.625 16.2504 2.64961 16.1109 2.69062 15.9715L6.84141 3.51914C7.02187 2.98594 7.52227 2.625 8.08828 2.625H19.6875V16.4062H2.625V16.3898ZM39.375 38.0625C39.375 38.7844 38.7844 39.375 38.0625 39.375H3.9375C3.21563 39.375 2.625 38.7844 2.625 38.0625V19.0312H39.375V38.0625ZM39.375 16.4062H22.3125V2.625H33.9117C34.4777 2.625 34.9781 2.98594 35.1586 3.51914L39.3094 15.9715C39.3504 16.1027 39.375 16.2422 39.375 16.3898V16.4062Z" fill="black"/>
<path opacity="0.8" d="M26.4644 27.958H22.8344V24.35H20.1724V27.958H16.5644V30.62H20.1724V34.25H22.8344V30.62H26.4644V27.958Z" fill="black"/>
</svg>
