<svg viewBox="0 0 31 31" fill="none" xmlns="http://www.w3.org/2000/svg">
<path d="M30.7866 28.389L23.4366 21.039C23.2973 20.8998 23.1157 20.8271 22.9219 20.8271H22.1227C24.0299 18.6173 25.1863 15.7414 25.1863 12.5931C25.1863 5.63664 19.5496 0 12.5931 0C5.63664 0 0 5.63664 0 12.5931C0 19.5496 5.63664 25.1863 12.5931 25.1863C15.7414 25.1863 18.6173 24.0299 20.8271 22.1227V22.9219C20.8271 23.1157 20.9058 23.2973 21.039 23.4366L28.389 30.7866C28.6736 31.0711 29.1337 31.0711 29.4183 30.7866L30.7866 29.4183C31.0711 29.1337 31.0711 28.6736 30.7866 28.389ZM12.5931 22.2802C7.24105 22.2802 2.90611 17.9452 2.90611 12.5931C2.90611 7.24105 7.24105 2.90611 12.5931 2.90611C17.9452 2.90611 22.2802 7.24105 22.2802 12.5931C22.2802 17.9452 17.9452 22.2802 12.5931 22.2802Z" fill="black"/>
</svg>
