<svg viewBox="0 0 24 22" fill="none" xmlns="http://www.w3.org/2000/svg">
<path d="M17.4898 18.8895L17.1343 19.1421L16.1318 20.9683L17.8633 21.8397C18.0737 21.945 18.2967 21.9987 18.5273 21.9987C18.9486 21.9987 19.3637 21.8105 19.6351 21.5007C19.8518 21.2536 19.9669 20.9537 19.9669 20.6327L19.6127 18.5406L17.4898 18.8895ZM12.4919 16.8266C12.1888 16.6745 11.8239 16.6457 11.4988 16.8094L6.42477 19.3634L7.49178 13.4204L2.97835 9.20863L9.21477 8.33723L11.9998 2.92832L12.4485 3.80016L14.3806 2.88836L13.2876 0.765273C13.0431 0.293477 12.5484 0 11.9967 0C11.4388 0 10.9584 0.286602 10.7125 0.765273L7.78372 6.45348L1.2285 7.36871C0.681783 7.44605 0.2385 7.80656 0.073276 8.30242C-0.0986643 8.80473 0.0401417 9.3457 0.435515 9.71438L5.17731 14.1402L4.05566 20.3921C3.98357 20.7982 4.09417 21.193 4.36641 21.502C4.64044 21.8144 5.05328 22 5.47193 22C5.70477 22 5.93089 21.9441 6.13731 21.8389L12.0007 18.8878L14.0416 19.9152L15.0442 18.089L12.5022 16.8094L12.4919 16.8266ZM14.7858 8.33723L18.1866 8.81246L18.4978 6.77145L16.216 6.45305L15.1964 4.47262L13.2643 5.38441L14.7858 8.33723ZM23.93 8.31059C23.7616 7.80656 23.3179 7.44605 22.7707 7.36871L20.831 7.09758L20.5198 9.13859L20.6636 9.54336L22.1667 11.0206L23.5695 9.71094C23.8481 9.44926 24.0007 9.10336 24.0007 8.73727L23.93 8.31059ZM16.5084 13.4204L17.0909 16.6654L19.2137 16.3165L18.8233 14.1406L20.4737 12.5997L18.9706 11.1225L16.5084 13.4204Z" fill="black"/>
</svg>
