<svg viewBox="0 0 29 33" fill="none" xmlns="http://www.w3.org/2000/svg">
<path d="M0 4.125C0 1.8498 1.85781 0 4.14286 0L24.8571 0C27.1422 0 29 1.8498 29 4.125L29 28.875C29 31.1502 27.1422 33 24.8571 33L4.14286 33C1.85781 33 0 31.1502 0 28.875L0 4.125ZM16.5714 28.875C16.5714 27.7342 15.6458 26.8125 14.5 26.8125C13.3542 26.8125 12.4286 27.7342 12.4286 28.875C12.4286 30.0158 13.3542 30.9375 14.5 30.9375C15.6458 30.9375 16.5714 30.0158 16.5714 28.875ZM25.4848 3.56757L3.51515 3.56757L3.51515 24.973L25.4848 24.973L25.4848 3.56757Z" fill="black"/>
</svg>
