<svg viewBox="0 0 17 21" fill="none" xmlns="http://www.w3.org/2000/svg">
<path d="M15.2413 8.12705L16.1349 7.24636C16.3208 7.0632 16.3208 6.76704 16.1349 6.58389L15.4627 5.92142C15.2769 5.73826 14.9764 5.73826 14.7905 5.92142L13.972 6.72807C12.7423 5.65643 11.1884 4.9394 9.4723 4.74845V2.82729H10.5794C10.8404 2.82729 11.0539 2.61686 11.0539 2.35966V1.42441C11.0539 1.16722 10.8404 0.956787 10.5794 0.956787H6.4672C6.20623 0.956787 5.99271 1.16722 5.99271 1.42441V2.35966C5.99271 2.61686 6.20623 2.82729 6.4672 2.82729H7.57434V4.75235C3.47791 5.21608 0.298828 8.64144 0.298828 12.8033C0.298828 17.2808 3.98008 20.9088 8.52332 20.9088C13.0666 20.9088 16.7478 17.2808 16.7478 12.8033C16.7478 11.0614 16.1903 9.44809 15.2413 8.12705ZM8.52332 19.0383C5.02791 19.0383 2.19679 16.2482 2.19679 12.8033C2.19679 9.35847 5.02791 6.5683 8.52332 6.5683C12.0187 6.5683 14.8499 9.35847 14.8499 12.8033C14.8499 16.2482 12.0187 19.0383 8.52332 19.0383ZM8.99781 14.6738H8.04883C7.78786 14.6738 7.57434 14.4634 7.57434 14.2062V8.90643C7.57434 8.64923 7.78786 8.4388 8.04883 8.4388H8.99781C9.25878 8.4388 9.4723 8.64923 9.4723 8.90643V14.2062C9.4723 14.4634 9.25878 14.6738 8.99781 14.6738Z" fill="black"/>
</svg>
