<svg viewBox="0 0 17 14" fill="none" xmlns="http://www.w3.org/2000/svg">
<path d="M16.575 10.0625H16.15V6.88789C16.15 6.36836 15.9455 5.8625 15.5895 5.49609L13.3609 3.20195C13.005 2.83555 12.5109 2.625 12.0089 2.625H11.05V1.53125C11.05 0.686328 10.3833 0 9.5625 0H1.4875C0.666719 0 0 0.686328 0 1.53125V9.84375C0 10.6887 0.666719 11.375 1.4875 11.375H1.7C1.7 12.8242 2.84219 14 4.25 14C5.65781 14 6.8 12.8242 6.8 11.375H10.2C10.2 12.8242 11.3422 14 12.75 14C14.1578 14 15.3 12.8242 15.3 11.375H16.575C16.8088 11.375 17 11.1781 17 10.9375V10.5C17 10.2594 16.8088 10.0625 16.575 10.0625ZM4.25 12.6875C3.54609 12.6875 2.975 12.0996 2.975 11.375C2.975 10.6504 3.54609 10.0625 4.25 10.0625C4.95391 10.0625 5.525 10.6504 5.525 11.375C5.525 12.0996 4.95391 12.6875 4.25 12.6875ZM9.775 10.0625H6.44672C6.00578 9.28047 5.19297 8.75 4.25 8.75C3.30703 8.75 2.49422 9.28047 2.05328 10.0625H1.4875C1.37063 10.0625 1.275 9.96406 1.275 9.84375V1.53125C1.275 1.41094 1.37063 1.3125 1.4875 1.3125H9.5625C9.67938 1.3125 9.775 1.41094 9.775 1.53125V10.0625ZM11.05 3.9375H12.0089C12.1763 3.9375 12.3409 4.00859 12.4605 4.12891L14.3995 6.125H11.05V3.9375ZM12.75 12.6875C12.0461 12.6875 11.475 12.0996 11.475 11.375C11.475 10.6504 12.0461 10.0625 12.75 10.0625C13.4539 10.0625 14.025 10.6504 14.025 11.375C14.025 12.0996 13.4539 12.6875 12.75 12.6875ZM14.875 9.92852C14.4181 9.22031 13.6372 8.75 12.75 8.75C12.0939 8.75 11.5016 9.0125 11.05 9.43086V7.4375H14.875V9.92852Z" fill="black" />
</svg>
