<svg viewBox="0 0 20 17" fill="none" xmlns="http://www.w3.org/2000/svg">
<path d="M19.5 7.17188H13.5C13.225 7.17188 13 7.41094 13 7.70312V8.23438C13 8.52656 13.225 8.76562 13.5 8.76562H19.5C19.775 8.76562 20 8.52656 20 8.23438V7.70312C20 7.41094 19.775 7.17188 19.5 7.17188ZM9.8 10.0938C8.9 10.0938 8.475 10.625 7 10.625C5.52812 10.625 5.1 10.0938 4.2 10.0938C1.88125 10.0938 0 12.0926 0 14.5562V15.4062C0 16.2861 0.671875 17 1.5 17H12.5C13.3281 17 14 16.2861 14 15.4062V14.5562C14 12.0926 12.1187 10.0938 9.8 10.0938ZM12.5 15.4062H1.5V14.5562C1.5 12.9758 2.7125 11.6875 4.2 11.6875C4.65625 11.6875 5.39687 12.2188 7 12.2188C8.61563 12.2188 9.34062 11.6875 9.8 11.6875C11.2875 11.6875 12.5 12.9758 12.5 14.5562V15.4062ZM7 9.5625C9.48438 9.5625 11.5 7.4209 11.5 4.78125C11.5 2.1416 9.48438 0 7 0C4.51562 0 2.5 2.1416 2.5 4.78125C2.5 7.4209 4.51562 9.5625 7 9.5625ZM7 1.59375C8.65312 1.59375 10 3.0248 10 4.78125C10 6.5377 8.65312 7.96875 7 7.96875C5.34688 7.96875 4 6.5377 4 4.78125C4 3.0248 5.34688 1.59375 7 1.59375Z" fill="black"/>
</svg>
