<svg width="166" height="148" viewBox="0 0 166 148" fill="none" xmlns="http://www.w3.org/2000/svg">
<g clip-path="url(#clip0_18769_434)">
<path d="M161.355 135.424C160.103 135.244 158.742 135.339 157.48 135.339C153.408 135.339 149.335 135.339 145.263 135.339C137.119 135.339 128.975 135.34 120.83 135.346C120.898 135.188 121.048 131.935 120.413 132.297C121.044 131.937 118.29 131.048 118.186 130.247C118.062 129.305 120.37 128.81 119.421 128.81H72.9109C72.1489 128.81 71.4168 129.18 71.0154 129.828C70.6832 130.364 70.7185 130.816 70.8463 131.229C66.0642 131.229 61.2888 130.944 56.5084 130.86C52.644 130.791 47.6266 130.203 43.9644 131.618C40.9836 132.769 41.2171 137.089 44.6982 137.089H83.9319C85.2947 137.089 86.3356 138.223 86.3264 139.586V143.538C86.3264 145.899 88.2394 147.813 90.5996 147.813C102.417 147.813 114.233 147.813 126.05 147.813C132.97 147.813 139.89 147.813 146.811 147.813C149.503 147.813 152.196 147.813 154.888 147.813C157.521 147.813 161.595 148.562 163.756 147.062C167.703 144.323 166.154 136.118 161.355 135.424L161.355 135.424Z" fill="#3888EE"/>
<path d="M92.135 145.595C91.087 145.595 90.2383 145.17 90.2383 144.646C90.2389 144.122 91.0877 143.698 92.1338 143.698C92.1344 143.698 92.135 143.698 92.1356 143.698L107.32 144.401L92.135 145.595V145.595Z" fill="#C2D7F2"/>
<path d="M74.3005 132.015C73.253 132.014 72.4038 131.589 72.4043 131.064C72.4043 130.541 73.2537 130.117 74.2998 130.117C74.3011 130.117 74.3016 130.117 74.3023 130.117L83.4971 130.543C83.5099 130.8 83.5297 131.049 83.557 131.287L74.3004 132.015L74.3005 132.015Z" fill="#C2D7F2"/>
<path d="M63.443 137.089H44.6983C41.4432 137.089 41.0274 133.311 43.4248 131.88H56.7983L56.8261 132.127C56.9535 133.252 57.906 134.082 59.0103 134.082C59.0928 134.082 59.1764 134.078 59.2608 134.068C59.7731 134.01 60.2245 133.78 60.5638 133.442L63.354 136.255L63.4427 137.089H63.443Z" fill="#3888EE"/>
<path d="M8.54688 0.199707L9.09705 39.369C9.09705 40.164 16.0571 41.8297 24.6444 41.8297C33.2305 41.8297 40.1912 40.1642 40.1912 39.369L40.7419 0.199707H8.54688Z" fill="#3E4461"/>
<path d="M40.7152 2.26182H8.47583C7.90709 2.26182 7.44531 1.80031 7.44531 1.23082C7.44531 0.661098 7.90709 0.199707 8.47583 0.199707H40.7152C41.2838 0.199707 41.7451 0.661217 41.7451 1.23082C41.7451 1.80031 41.2838 2.26182 40.7152 2.26182Z" fill="#3E4461"/>
<path d="M32.5036 39.819H9.63187C9.28209 39.6528 9.0957 39.4994 9.0957 39.3691V33.374C10.566 33.8402 12.2884 34.1732 14.1462 34.1732C14.7452 34.1732 15.3575 34.139 15.9802 34.0629C18.8041 35.445 22.0991 36.1407 25.8398 36.1407C26.2534 36.1407 26.6733 36.1319 27.0974 36.115C31.8651 35.9233 35.7736 34.1454 38.713 30.8309C39.2533 30.2223 39.7408 29.5731 40.1899 28.9007V25.8535C39.4818 27.2809 38.6207 28.628 37.5688 29.8144C34.9156 32.8057 31.3721 34.411 27.0365 34.5848C26.6293 34.6016 26.2267 34.6097 25.8299 34.6097C23.1716 34.6097 20.7601 34.236 18.6072 33.4939C19.0022 33.3695 19.399 33.226 19.7963 33.0613C30.0759 28.81 35.7951 20.0065 38.7933 11.31C39.3127 10.9613 39.6542 10.3679 39.6542 9.69497V8.56151C39.6804 8.46923 39.7066 8.37731 39.7321 8.28491C39.8517 7.8542 39.9651 7.42481 40.0719 6.99817C40.2578 6.25947 40.4244 5.52831 40.575 4.80591L40.1905 39.357H33.2576C32.9288 39.357 32.6436 39.5448 32.5036 39.8191V39.819Z" fill="#32364A"/>
<path d="M20.55 0.00274744V0.0300713H12.4443C11.6682 0.0300713 11.0391 0.6596 11.0391 1.43605V4.72966C11.0391 5.1877 11.3521 5.61242 11.8041 5.68636C12.3803 5.77972 12.8783 5.33762 12.8783 4.77904V4.09726C12.8783 2.31461 14.4321 0.922053 16.201 1.1313C16.2668 1.13957 16.3312 1.1476 16.3957 1.15694C18.8025 1.49861 20.5498 3.63323 20.5498 6.06518C20.5498 7.48434 20.5498 9.0303 20.5498 10.022C20.5498 11.075 21.3377 12.0177 22.3886 12.073C23.5092 12.1318 24.4358 11.2395 24.4358 10.1318V4.00426C24.4358 3.54467 24.7204 3.11851 25.1579 2.98129C25.2944 2.93827 25.439 2.91574 25.5907 2.91574C25.8922 2.91574 26.1716 3.00754 26.4033 3.16429C26.6811 3.35256 26.8251 3.6862 26.8251 4.02212V13.2133C26.8251 13.8113 27.2284 14.3337 27.8064 14.4849L27.8068 14.4854C28.5912 14.6905 29.1372 15.3985 29.1372 16.2092C29.1372 17.5368 29.1372 19.4878 29.1372 20.7298C29.1372 21.9172 30.005 22.9738 31.1867 23.0865C32.542 23.2161 33.6829 22.1531 33.6829 20.8232V2.82466C33.6829 2.26728 34.1337 1.81571 34.6902 1.81391C34.7686 1.81391 34.8458 1.82039 34.9214 1.83249C35.4215 1.91266 35.769 2.37765 35.769 2.88458C35.769 4.28457 35.769 7.81535 35.769 9.58457C35.769 10.6371 36.5573 11.5803 37.6076 11.6355C38.7283 11.6944 39.6549 10.8028 39.6549 9.69446V1.70582C39.6549 0.763143 38.891 -0.000488281 37.9486 -0.000488281L20.5498 0.00226808L20.55 0.00274744Z" fill="#3888EE"/>
<path d="M30.3011 21.8958C29.9025 21.8958 29.5801 21.5727 29.5801 21.174L30.0112 12.0469L31.0227 21.174C31.0227 21.5727 30.6996 21.8958 30.3011 21.8958Z" fill="#C2D7F2"/>
<path d="M36.5288 10.333C36.3296 10.333 36.168 10.172 36.168 9.97262L36.3836 5.40845L36.8897 9.97262C36.8897 10.1719 36.7275 10.333 36.5289 10.333H36.5288Z" fill="#C2D7F2"/>
<path d="M27.4675 14.0288C27.2473 14.0288 27.0684 13.8503 27.0684 13.6296L27.3078 8.57837L27.8672 13.6296C27.8672 13.8503 27.6884 14.0288 27.4676 14.0288H27.4675Z" fill="#C2D7F2"/>
<path d="M21.3111 10.8543C21.0905 10.8543 20.9121 10.6758 20.9121 10.455L21.1508 5.40381L21.7102 10.455C21.7102 10.6758 21.5313 10.8543 21.3111 10.8543Z" fill="#C2D7F2"/>
<path d="M11.3594 4.98728C11.2495 4.98728 11.1602 4.89764 11.1602 4.78727L11.2607 2.66235H11.324L11.5592 4.78727C11.5592 4.89764 11.4698 4.98728 11.3594 4.98728Z" fill="#C2D7F2"/>
<path d="M15.9802 34.0629C14.08 33.1329 12.3929 31.8915 10.9285 30.3425C10.2471 29.6225 9.64301 28.8547 9.0957 28.0595V25.1094C9.87874 26.6066 10.8472 28.0305 12.0445 29.2952C13.8564 31.2098 16.0493 32.6121 18.6072 33.4939C17.7196 33.7739 16.8406 33.9577 15.9802 34.0629Z" fill="#32364A"/>
<path d="M25.8401 36.1405C22.0994 36.1405 18.8044 35.4448 15.9805 34.0627C16.8409 33.9574 17.7199 33.7737 18.6075 33.4937C20.7604 34.2358 23.1719 34.6095 25.8302 34.6095C26.227 34.6095 26.6296 34.6015 27.0368 34.5846C31.3724 34.4108 34.9159 32.8054 37.5691 29.8142C38.6211 28.6278 39.4821 27.2807 40.1902 25.8533V28.9005C39.7411 29.573 39.2537 30.2221 38.7133 30.8307C35.7739 34.1452 31.8654 35.9231 27.0977 36.1148C26.6736 36.1319 26.2538 36.1405 25.8401 36.1405Z" fill="#2D2F3B"/>
<path d="M8.08616 5.54102H4.49438L4.42814 6.23382C4.42586 6.25359 4.33398 7.2212 4.33398 8.7916C4.33806 12.2526 4.76809 18.6395 7.66979 24.2666C9.12207 27.0779 11.2077 29.7009 14.1738 31.6137C17.1389 33.5275 20.9695 34.7131 25.8371 34.7114C26.2502 34.7114 26.6703 34.7027 27.0978 34.6852C31.1522 34.5259 34.3548 33.2141 36.8087 31.2264C40.4934 28.242 42.49 23.8203 43.5899 19.5607C44.6878 15.2952 44.8882 11.1606 44.8889 8.65798C44.8889 7.17242 44.8174 6.26234 44.8163 6.24604L44.7605 5.54114H41.3817C40.9594 5.54114 40.6166 5.884 40.6166 6.30656C40.6166 6.72961 40.9594 7.07199 41.3817 7.07199H44.0535V6.30656L43.2907 6.36708L43.293 6.40184C43.3052 6.57741 43.3585 7.40084 43.3585 8.6581C43.3621 11.8826 42.9983 17.9637 40.7542 23.2142C39.6343 25.8412 38.0541 28.2521 35.8466 30.0358C33.6362 31.8182 30.7989 33.0009 27.0368 33.1557C26.629 33.172 26.2292 33.18 25.8371 33.18C21.2136 33.1782 17.7064 32.0681 15.0028 30.3269C12.9761 29.0193 11.3954 27.3482 10.1562 25.4838C8.2983 22.6899 7.21771 19.4574 6.61016 16.4496C6.00141 13.4427 5.86437 10.6645 5.86485 8.79172C5.86485 8.03684 5.88689 7.42888 5.90845 7.01207C5.91947 6.80355 5.93049 6.64308 5.93864 6.53558C5.94271 6.48201 5.94618 6.44199 5.94846 6.41586L5.95146 6.37979L5.18986 6.30668V7.07211H8.08628C8.50937 7.07211 8.85136 6.72973 8.85136 6.30668C8.85136 5.88412 8.50937 5.54126 8.08628 5.54126L8.08616 5.54102Z" fill="#606982"/>
<path d="M40.6976 2.66235H39.6543V2.26196H40.7094L40.6976 2.66235Z" fill="#383C56"/>
<path d="M40.7094 2.2619H39.6543V2.14673H40.7128L40.7094 2.2619Z" fill="#383C56"/>
<path d="M35.7473 2.66235H33.6973C33.7205 2.51591 33.7756 2.38001 33.8554 2.26196H35.5799C35.6601 2.38109 35.7178 2.51771 35.7473 2.66235Z" fill="#383C56"/>
<path d="M35.58 2.2619H33.8555C33.8827 2.22115 33.913 2.1828 33.9454 2.14673H35.4902C35.5227 2.1828 35.553 2.22115 35.5801 2.2619H35.58Z" fill="#383C56"/>
<path d="M19.23 2.66235H13.2441C13.3214 2.52118 13.409 2.38756 13.5073 2.26196H18.8175C18.9628 2.38684 19.1005 2.52106 19.2301 2.66235H19.23Z" fill="#383C56"/>
<path d="M18.818 2.2619H13.5078C13.5386 2.22283 13.5699 2.1846 13.6018 2.14673H18.6797C18.7263 2.1846 18.7728 2.22235 18.818 2.2619Z" fill="#383C56"/>
<path d="M11.0402 2.66235H8.58962L8.57812 2.26196H11.0402V2.66235Z" fill="#383C56"/>
<path d="M11.0393 2.2619H8.57721L8.57422 2.14673H11.0393V2.2619Z" fill="#383C56"/>
<path d="M39.6549 2.66229H35.7464C35.7169 2.51764 35.6593 2.38102 35.579 2.2619C35.5518 2.22115 35.5215 2.1828 35.4891 2.14673H39.6548V2.66229H39.6549ZM33.6964 2.66229H19.2306C19.101 2.52111 18.9634 2.38677 18.8181 2.2619C18.7728 2.22235 18.7263 2.1846 18.6797 2.14673H33.9442C33.9117 2.1828 33.8814 2.22115 33.8542 2.2619C33.7746 2.37982 33.7194 2.51572 33.6961 2.66229H33.6964ZM13.2448 2.66229H11.3243L11.2795 2.2619L11.2609 2.66229H11.0391V2.14673H13.602C13.57 2.1846 13.5388 2.22283 13.508 2.2619C13.4096 2.38749 13.3221 2.52099 13.2448 2.66229Z" fill="#2B67B5"/>
<path d="M11.3252 2.66235H11.2617L11.2804 2.26196L11.3252 2.66235Z" fill="#D6A98D"/>
<path d="M12.2641 0.905405C12.1182 0.905405 11.9962 0.790956 11.9886 0.64391C11.9812 0.491471 12.0985 0.362522 12.2501 0.354972L12.2699 0.354492L19.8945 0.519514L12.2779 0.904685C12.2733 0.905285 12.2687 0.905285 12.2641 0.905285V0.905405Z" fill="#FAC8A3"/>
<path d="M11.0391 1.43599V2.26182H13.5119C14.1271 1.47362 15.1229 1.00408 16.201 1.13136C16.2668 1.13963 16.3312 1.14765 16.3957 1.157C17.3204 1.28763 18.1466 1.68586 18.8147 2.26182H33.8545C34.0356 1.99266 34.3418 1.81553 34.6903 1.81421C34.7687 1.81421 34.8459 1.82069 34.9215 1.83279C35.198 1.87689 35.4242 2.04036 35.5745 2.26182H39.6549V1.70684C39.6549 1.04879 39.2791 0.48505 38.7347 0.199707H11.7883C11.3445 0.436275 11.0391 0.897785 11.0391 1.43599Z" fill="#3888EE"/>
<path d="M62.8193 77.8007H5.32995C4.25115 77.8007 3.37695 76.9254 3.37695 75.8461V75.7217C3.37695 74.6424 4.25115 73.7671 5.32995 73.7671H62.8193C63.8986 73.7671 64.7735 74.6424 64.7735 75.7217V75.8461C64.7735 76.9254 63.8986 77.8007 62.8193 77.8007Z" fill="#52382D"/>
<path d="M3.3845 75.9707C3.38043 75.9206 3.37743 75.87 3.37695 75.8194V75.7516C3.38091 75.5203 3.4269 75.3017 3.49722 75.0959C3.61581 75.4406 3.81789 75.7418 4.07818 75.9701H3.43912C3.42056 75.9701 3.40259 75.9701 3.38462 75.9707H3.3845ZM64.7654 75.9701H64.0711C64.332 75.7418 64.5342 75.4406 64.6526 75.0959C64.7263 75.3117 64.7734 75.5413 64.7734 75.7841C64.7734 75.8469 64.7704 75.9085 64.7654 75.9701Z" fill="#433128"/>
<path d="M61.6776 111.201H5.3734C4.30515 111.201 3.43945 110.334 3.43945 109.266V109.102C3.43945 108.034 4.30515 107.167 5.3734 107.167H61.6776C62.7454 107.167 63.6116 108.034 63.6116 109.102V109.266C63.6116 110.334 62.7454 111.201 61.6776 111.201Z" fill="#52382D"/>
<path d="M60.6878 111.201H58.8899L58.7342 109.824H60.5415L60.6879 111.201H60.6878ZM54.4598 111.201H13.6223L13.7779 109.824H54.304L54.4598 111.201ZM9.19202 111.201H7.20117L7.34827 109.824H9.34774L9.19214 111.201H9.19202Z" fill="#433128"/>
<path d="M46.8716 44.0999L56.8274 132.128C56.964 133.336 58.0544 134.205 59.2621 134.068C60.4698 133.931 61.3384 132.841 61.2013 131.633L51.2459 43.6049C51.1089 42.3966 50.0189 41.5277 48.8113 41.6643C47.6036 41.8009 46.735 42.8917 46.8716 44.0999Z" fill="#52382D"/>
<path d="M11.2557 132.128L21.2111 44.0999C21.3482 42.8917 20.4796 41.8009 19.2719 41.6643C18.0642 41.5277 16.9737 42.3966 16.8372 43.6049L6.88132 131.633C6.74476 132.841 7.61333 133.931 8.82113 134.068C10.0288 134.205 11.1191 133.336 11.2557 132.128Z" fill="#52382D"/>
<path d="M63.8741 47.8854H4.33882C2.72914 47.8854 1.42383 46.5795 1.42383 44.9688V42.7353C1.42383 41.1249 2.72914 39.8191 4.33882 39.8191H63.8741C65.4839 39.8191 66.7886 41.1249 66.7886 42.7353V44.9688C66.7886 46.5794 65.4839 47.8854 63.8741 47.8854Z" fill="#684232"/>
<path d="M67.8765 137.151L57.9206 43.6186C57.7923 42.4099 56.7082 41.5338 55.4993 41.6624C54.2903 41.7914 53.4149 42.8759 53.5438 44.0854L63.4997 137.618C63.6282 138.827 64.7122 139.703 65.9211 139.575C67.13 139.445 68.0055 138.361 67.8764 137.152L67.8765 137.151Z" fill="#684232"/>
<path d="M4.38981 137.618L14.3451 44.0851C14.474 42.8757 13.5986 41.7911 12.3898 41.6622C11.1808 41.5337 10.0969 42.4096 9.96849 43.6183L0.0125895 137.151C-0.1163 138.361 0.759096 139.445 1.96786 139.574C3.17686 139.703 4.2608 138.827 4.38981 137.618V137.618Z" fill="#684232"/>
<path d="M65.955 119.083L65.8179 117.796L65.7441 117.106C65.8905 117.026 66.0253 116.928 66.1467 116.815C66.5301 117.028 66.7892 117.434 66.7892 117.905C66.7892 118.45 66.4401 118.91 65.955 119.083Z" fill="#653C2C"/>
<path d="M65.8179 117.796L65.7441 117.106L65.8179 117.796Z" fill="#352925"/>
<path d="M61.2683 116.651H65.5346C65.5905 116.651 65.6433 116.66 65.6968 116.667L61.9841 81.7849H57.5566L61.2682 116.651H61.2683Z" fill="#684232"/>
<path d="M57.2911 79.2757H61.7178L58.8057 51.9187H54.3789L57.2911 79.2757Z" fill="#684232"/>
<path d="M67.8771 137.152L65.9536 119.083C65.8223 119.13 65.6817 119.16 65.5342 119.16H61.5352L63.4994 137.619C63.6197 138.749 64.5746 139.587 65.6854 139.587C65.7637 139.587 65.8422 139.584 65.9212 139.575C67.1296 139.445 68.0056 138.362 67.8772 137.152L67.8771 137.152Z" fill="#684232"/>
<path d="M58.8052 51.9189L58.6501 50.4605L58.8052 51.9189ZM53.991 48.2764L53.9492 47.8853L53.991 48.2764Z" fill="#653C2C"/>
<path d="M58.8053 51.9188H54.3785L53.991 48.2763L53.9492 47.8853H58.376L58.6502 50.4604L58.8053 51.9188Z" fill="#352925"/>
<path d="M47.7558 51.9188H47.7436L47.5547 50.1426L47.7558 51.9188ZM51.9292 49.6527L51.7294 47.8853H51.7409L51.929 49.6527H51.9292Z" fill="#653C2C"/>
<path d="M52.1703 51.9188H47.7559L47.5549 50.1426L47.3145 47.8853H51.7294L51.9292 49.6527L52.1703 51.9188Z" fill="#302925"/>
<path d="M61.9837 81.7848L61.7938 80.0022L61.9837 81.7848ZM57.5563 81.7848L57.3867 80.1894L57.5563 81.7848Z" fill="#653C2C"/>
<path d="M61.984 81.7848H57.5566L57.387 80.1894L57.3672 80.0022H61.7939L61.984 81.7848Z" fill="#352925"/>
<path d="M65.9546 119.083L65.8175 117.796L65.9546 119.083ZM61.4995 118.816L61.3438 117.355L61.4995 118.816Z" fill="#653C2C"/>
<path d="M65.5351 119.16H61.536L61.4995 118.816L61.3438 117.355H64.7742C65.1256 117.355 65.4562 117.265 65.7437 117.106L65.8175 117.796L65.9546 119.083C65.8228 119.13 65.6826 119.16 65.5352 119.16L65.5351 119.16Z" fill="#352925"/>
<path d="M65.5342 119.16H61.5352H65.5342C65.6818 119.16 65.8219 119.13 65.9536 119.083C65.8223 119.13 65.6817 119.16 65.5342 119.16Z" fill="#352925"/>
<path d="M14.3445 44.0859C14.4734 42.8759 13.598 41.7919 12.3893 41.6628C11.1861 41.5333 10.0963 42.4098 9.9673 43.6185L9.51367 47.8853H13.9404L14.3446 44.086L14.3445 44.0859Z" fill="#684232"/>
<path d="M6.62107 116.651L10.3322 81.7849H5.90499L2.18359 116.752C2.33464 116.687 2.50187 116.651 2.67675 116.651H6.62119H6.62107Z" fill="#684232"/>
<path d="M13.5108 51.9187H9.08351L6.17188 79.2757H10.5992L13.5108 51.9187Z" fill="#684232"/>
<path d="M1.95288 118.926L0.0125823 137.152C-0.116308 138.362 0.759688 139.446 1.96785 139.575C2.04691 139.584 2.12597 139.587 2.20383 139.587C3.3146 139.587 4.26894 138.749 4.3898 137.619L6.35454 119.16H2.67722C2.40651 119.16 2.15723 119.072 1.95288 118.926Z" fill="#684232"/>
<path d="M9.08446 51.9188H9.08398L9.51378 47.8853L9.08446 51.9188Z" fill="#653C2C"/>
<path d="M13.5108 51.9188H9.08398L9.5133 47.8853H13.9401L13.5108 51.9188Z" fill="#352925"/>
<path d="M20.3382 51.9188H20.3267L20.5288 50.1332L20.3382 51.9188ZM16.1543 49.6421L16.3414 47.8853H16.3531L16.1544 49.6421H16.1543Z" fill="#653C2C"/>
<path d="M20.3272 51.9188H15.9121L16.1548 49.6421L16.3536 47.8853H20.7687L20.5293 50.1332L20.3272 51.9188Z" fill="#302925"/>
<path d="M10.3334 81.7848L10.4705 80.4957L10.3334 81.7848ZM5.90673 81.7848H5.90625L6.09611 80.0022L5.90673 81.7848Z" fill="#653C2C"/>
<path d="M10.3329 81.7848H5.90625L6.09563 80.0022H10.5223L10.47 80.4956L10.3329 81.7848Z" fill="#352925"/>
<path d="M6.35563 119.16L6.54777 117.355L6.35563 119.16ZM2.0625 117.901L2.16887 116.903L2.0625 117.901Z" fill="#653C2C"/>
<path d="M6.35478 119.16H2.67747C2.40675 119.16 2.15748 119.072 1.95312 118.926L2.06165 117.901L2.16802 116.903C2.5148 117.185 2.95741 117.355 3.43967 117.355H6.54704L6.3549 119.16H6.35478Z" fill="#352925"/>
<path d="M64.7741 80.0023H3.43959C2.32594 80.0023 1.42383 79.0996 1.42383 77.9855C1.42383 76.8719 2.32594 75.97 3.43959 75.97H64.7741C65.8872 75.97 66.7887 76.872 66.7887 77.9855C66.7887 79.0996 65.8871 80.0023 64.7741 80.0023Z" fill="#684232"/>
<path d="M64.7741 80.0022H3.43959C2.32594 80.0022 1.42383 79.0996 1.42383 77.9854C1.42383 77.7431 1.47318 77.5136 1.55212 77.2979C1.83386 78.0715 2.56886 78.6265 3.43959 78.6265H64.7741C65.6444 78.6265 66.3791 78.0715 66.661 77.2979C66.7401 77.5136 66.7888 77.7431 66.7888 77.9854C66.7888 79.0996 65.8872 80.0022 64.7742 80.0022H64.7741Z" fill="#56392C"/>
<path d="M63.8741 47.8853H58.3756L58.1414 45.6838H63.8741C65.4839 45.6838 66.7886 44.3779 66.7886 42.7667V44.9688C66.7886 46.5794 65.4839 47.8854 63.8741 47.8854V47.8853ZM53.9489 47.8853H13.941L14.1757 45.6838H37.6435C37.6435 45.8882 37.6435 46.086 37.6435 46.2439C37.6435 46.5874 37.8945 46.8925 38.236 46.9251C38.258 46.9274 38.2796 46.9286 38.3006 46.9286C38.6635 46.9286 38.9576 46.634 38.9576 46.2713C38.9576 46.0753 38.9576 45.8796 38.9576 45.6838H53.7149L53.9488 47.8853H53.9489ZM9.5143 47.8853H4.33882C2.72914 47.8853 1.42383 46.5794 1.42383 44.9687V42.7666C1.42383 44.3776 2.72914 45.6837 4.33882 45.6837H9.74848L9.5143 47.8852V47.8853Z" fill="#573A2C"/>
<path d="M58.3756 47.8852H53.9488L53.7148 45.6836H58.1414L58.3756 47.8852Z" fill="#573A2C"/>
<path d="M13.9405 47.8852H9.51367H13.9405L14.1747 45.6836H14.1751L13.9405 47.8852Z" fill="#573A2C"/>
<path d="M13.9405 47.8852H9.51367L9.74785 45.6836H14.1747L13.9405 47.8852Z" fill="#573A2C"/>
<path d="M64.7741 117.355H3.43959C2.32594 117.355 1.42383 116.452 1.42383 115.338C1.42383 114.224 2.32594 113.321 3.43959 113.321H64.7741C65.8872 113.321 66.7887 114.224 66.7887 115.338C66.7887 116.452 65.8871 117.355 64.7741 117.355Z" fill="#684232"/>
<path d="M64.7741 117.355H3.43959C2.95745 117.355 2.51484 117.185 2.16794 116.903C1.71359 116.534 1.42383 115.97 1.42383 115.338C1.42383 115.079 1.47665 114.833 1.56613 114.605C1.85961 115.356 2.58515 115.889 3.43959 115.889H64.7741C65.6281 115.889 66.353 115.356 66.6471 114.605C66.7365 114.833 66.7887 115.079 66.7887 115.338C66.7887 116.1 66.3669 116.763 65.7437 117.106C65.4562 117.265 65.1255 117.355 64.7741 117.355Z" fill="#56392C"/>
<path d="M46.7657 39.3569H33.2579C32.7903 39.3569 32.4121 39.7359 32.4121 40.2033C32.4121 40.2996 32.437 40.3886 32.4666 40.4753C32.4353 40.5333 32.4121 40.5967 32.4121 40.6675V41.6194C32.4121 41.7514 32.5027 41.8746 32.6328 41.896C33.0103 41.9576 32.9232 41.5015 32.9442 41.2852C32.9529 41.1881 32.9977 41.0847 33.0883 41.0477L33.2412 41.033C33.6675 41.0528 34.0793 41.0558 34.5047 41.025C34.7695 41.0052 34.8625 41.0871 34.9845 41.3126C35.1001 41.5249 35.1611 41.7642 35.1611 42.006C35.1611 42.4158 35.1611 42.8628 35.1611 43.1492C35.1611 43.4538 35.3888 43.7264 35.6927 43.7419C36.0167 43.759 36.2847 43.5014 36.2847 43.1806V41.4096C36.2847 41.2772 36.366 41.1538 36.4931 41.1138L36.618 41.0952C36.7051 41.0952 36.7859 41.122 36.8527 41.1673C36.9334 41.2213 36.9748 41.3178 36.9748 41.4149V44.0716C36.9748 44.2448 37.0908 44.3953 37.2582 44.4395C37.4854 44.4989 37.6428 44.7033 37.6428 44.9376C37.6428 45.3218 37.6428 45.8855 37.6428 46.2441C37.6428 46.5876 37.8938 46.8927 38.2353 46.9253C38.6273 46.963 38.9569 46.6557 38.9569 46.2714C38.9569 45.3298 38.9569 44.389 38.9573 43.4475C38.9579 43.0231 38.9561 42.5989 38.9569 42.1746C38.9569 41.9624 38.8452 41.1035 39.0677 41.039C39.1683 41.0099 39.2745 41.0007 39.3791 41.0117L39.504 41.0505C39.6539 41.1552 39.573 41.4551 39.576 41.6079C39.5854 42.0793 39.5597 42.5513 39.5597 43.0227C39.5597 43.3273 39.7875 43.5998 40.0914 43.6154C40.4156 43.6329 40.6833 43.3749 40.6833 43.0545V42.009C40.6833 41.4788 41.1127 41.0493 41.6423 41.0493H46.7656C47.2322 41.0493 47.6114 40.6706 47.6114 40.2034C47.6114 39.736 47.2322 39.3571 46.7656 39.3571L46.7657 39.3569Z" fill="#3888EE"/>
<path d="M37.9806 46.2798C37.865 46.2798 37.7715 46.1869 37.7715 46.0718L37.8963 43.4331L38.1891 46.0718C38.1891 46.1869 38.0955 46.2798 37.9806 46.2798Z" fill="#C2D7F2"/>
<path d="M37.1605 44.0062C37.0967 44.0062 37.0449 43.9547 37.0449 43.8912L37.1134 42.4307L37.2755 43.8912C37.2755 43.9546 37.2238 44.0062 37.1605 44.0062Z" fill="#C2D7F2"/>
<path d="M35.3826 43.0888C35.3193 43.0888 35.2676 43.037 35.2676 42.9737L35.3361 41.5137L35.4977 42.9737C35.4977 43.037 35.4464 43.0888 35.3826 43.0888Z" fill="#C2D7F2"/>
<path d="M32.5054 41.3926L32.4473 41.3351L32.4821 40.6052L32.5624 41.3351L32.5054 41.3926Z" fill="#C2D7F2"/>
<path d="M92.1071 126.635L82.0914 126.629C81.4617 126.624 81.0063 126.406 80.6663 126.066C80.3311 125.721 80.1126 125.24 80.1099 124.615C80.1099 124.51 80.1164 124.402 80.1301 124.29L81.0696 116.665C81.1561 115.938 81.5442 115.23 82.1142 114.715C82.684 114.2 83.3991 113.908 84.0782 113.911H84.0869L84.0789 112.216L83.958 113.907C84.0208 113.911 84.0649 113.911 84.0806 113.911C84.084 113.911 84.0858 113.911 84.087 113.911L84.079 112.216L83.9581 113.907L84.0186 113.911L100.921 113.921H100.938L100.925 112.382V113.921H100.938L100.925 112.382V113.921C102.558 113.918 104.053 113.256 105.188 112.231C106.323 111.203 107.134 109.781 107.337 108.155L116.216 36.0751L112.811 35.6555L103.932 107.735C103.845 108.462 103.457 109.171 102.887 109.684C102.318 110.201 101.603 110.492 100.925 110.489L100.908 110.489L100.921 112.031V110.489L100.908 110.489L100.921 112.031V110.489L84.0815 110.479L84.0803 112.195L84.2021 110.483L84.0901 110.479H84.0704L84.0784 112.092V110.479H84.0704L84.0784 112.092V110.479C82.4449 110.482 80.9495 111.144 79.8144 112.17C78.6793 113.197 77.8677 114.619 77.6645 116.245L76.7257 123.87C76.6949 124.12 76.6797 124.369 76.6797 124.615C76.6769 126.092 77.2386 127.476 78.2181 128.47C79.1923 129.469 80.5848 130.065 82.0894 130.061L92.1058 130.067L92.1074 126.635H92.1071Z" fill="#192B59"/>
<path d="M119.748 121.973C119.748 121.973 86.5918 121.918 86.5209 121.91C85.3283 121.763 84.0235 124.406 83.6082 127.812C83.3189 130.18 83.5374 132.266 84.0979 133.367C84.2663 133.875 84.5987 134.207 85.1918 134.217L118.536 134.183C119.586 134.076 120.369 132.676 120.566 131.079L120.747 124.868C120.944 123.27 121.318 121.974 119.748 121.973Z" fill="#11DD9C"/>
<path d="M119.748 121.973C119.748 121.973 110.515 121.957 101.783 121.942C100.821 121.94 100.04 122.72 100.04 123.683C100.04 124.646 99.2605 125.425 98.2991 125.425H84.072C83.8716 126.151 83.7113 126.957 83.6073 127.812C83.5393 128.363 83.5028 128.897 83.4883 129.41H99.8955C101.602 129.41 103.1 130.304 103.947 131.65C104.931 133.213 106.616 134.195 108.462 134.192L118.535 134.183C119.585 134.076 120.368 132.676 120.565 131.079L120.746 124.868C120.943 123.27 121.317 121.974 119.748 121.973H119.748Z" fill="#3888EE"/>
<path d="M120.639 128.604V128.6C120.641 128.583 120.643 128.566 120.645 128.549L120.639 128.604Z" fill="#CF9154"/>
<path d="M86.1813 134.216C84.65 134.175 83.5748 132.894 83.7687 131.322L84.0046 129.41H84.1387C84.3619 130.576 85.3319 131.421 86.5996 131.423L103.804 131.433C103.854 131.504 103.903 131.576 103.949 131.65C104.932 133.212 106.614 134.193 108.458 134.193C108.46 134.193 108.462 134.193 108.464 134.193L117.652 134.183L86.1815 134.216H86.1813Z" fill="#35B88F"/>
<path d="M108.457 134.192C106.613 134.192 104.931 133.211 103.948 131.65C103.902 131.576 103.854 131.504 103.804 131.433L117.446 131.441H117.447C118.999 131.441 120.418 130.174 120.638 128.599V128.604L120.301 131.344C120.127 132.753 118.993 133.926 117.651 134.183L108.463 134.193C108.461 134.193 108.459 134.193 108.457 134.193L108.457 134.192ZM84.1381 129.41H84.0039L84.1126 128.527C84.0748 128.835 84.0852 129.131 84.1381 129.41Z" fill="#2B67B5"/>
<path d="M83.5138 130.728C83.4865 130.312 83.4777 129.871 83.4895 129.41H83.637C83.6277 129.488 83.6178 129.567 83.6085 129.647C83.5625 130.017 83.5347 130.375 83.5139 130.728L83.5138 130.728ZM83.4922 129.316C83.505 128.898 83.5353 128.465 83.5841 128.019C83.5353 128.464 83.5062 128.897 83.4922 129.316ZM83.5846 128.014C83.5852 128.01 83.5858 128.007 83.5858 128.003C83.5858 128.007 83.5853 128.01 83.5846 128.014ZM83.6084 127.812C83.6427 127.531 83.6828 127.256 83.7281 126.987C83.6828 127.256 83.6427 127.531 83.6084 127.812ZM83.7287 126.987C83.7305 126.975 83.7328 126.963 83.7345 126.95C83.7328 126.963 83.7305 126.975 83.7287 126.987ZM83.7351 126.947C83.7374 126.936 83.7392 126.925 83.7409 126.914C83.7392 126.925 83.7374 126.936 83.7351 126.947ZM83.7421 126.907C83.7446 126.896 83.7462 126.886 83.748 126.876C83.7462 126.886 83.7445 126.896 83.7421 126.907ZM83.7492 126.869C83.7508 126.859 83.7526 126.85 83.7544 126.84C83.7526 126.85 83.7508 126.859 83.7492 126.869ZM83.7561 126.828C83.7579 126.82 83.7591 126.812 83.7607 126.804C83.759 126.812 83.7579 126.82 83.7561 126.828ZM83.7631 126.79C83.7649 126.782 83.766 126.775 83.7671 126.768C83.7659 126.775 83.7649 126.782 83.7631 126.79ZM83.7718 126.743C83.7724 126.739 83.773 126.735 83.7741 126.732C83.7729 126.735 83.7724 126.739 83.7718 126.743ZM83.7793 126.702C83.7799 126.7 83.7805 126.698 83.7805 126.696C83.7805 126.698 83.7801 126.7 83.7793 126.702ZM83.7876 126.661C83.7876 126.66 83.7876 126.66 83.7876 126.66C83.7876 126.66 83.7876 126.66 83.7876 126.661ZM83.9682 125.828C83.9682 125.827 83.9682 125.827 83.9687 125.826C83.9682 125.827 83.9682 125.827 83.9682 125.828ZM83.9763 125.796C83.9775 125.79 83.9786 125.784 83.9804 125.779C83.9786 125.784 83.9774 125.79 83.9763 125.796ZM83.9838 125.764C83.9861 125.756 83.9879 125.747 83.9903 125.739C83.988 125.748 83.9862 125.756 83.9838 125.764ZM83.9918 125.733C83.9941 125.722 83.9971 125.712 83.9994 125.701C83.9971 125.712 83.9941 125.722 83.9918 125.733ZM84.0001 125.701C84.5713 123.459 85.5233 121.904 86.4266 121.904C86.4586 121.904 86.49 121.905 86.5213 121.909C86.5765 121.916 106.423 121.95 115.413 121.965C111.913 121.959 106.767 121.951 101.785 121.942C101.783 121.942 101.782 121.942 101.781 121.942C100.82 121.942 100.041 122.721 100.041 123.683C100.041 123.713 100.04 123.742 100.039 123.771C92.9732 123.757 86.6824 123.745 86.5242 123.745C86.5231 123.745 86.522 123.745 86.5213 123.745C85.3931 123.747 84.7679 124.372 84.3736 125.425H84.0733C84.0484 125.516 84.0239 125.608 84.0002 125.701H84.0001ZM119.749 121.973C119.749 121.973 119.739 121.973 119.72 121.973C119.739 121.973 119.749 121.973 119.749 121.973Z" fill="#9EF2D7"/>
<path d="M120.818 124.336C120.67 124.005 120.356 123.809 119.749 123.809C119.749 123.809 109.238 123.789 100.039 123.771C100.04 123.742 100.041 123.713 100.041 123.683C100.041 122.721 100.82 121.942 101.781 121.942C101.782 121.942 101.784 121.942 101.785 121.942C106.767 121.951 111.913 121.96 115.413 121.965C117.851 121.969 119.49 121.972 119.72 121.973C119.739 121.973 119.749 121.973 119.749 121.973C119.754 121.973 119.759 121.973 119.765 121.973H119.765C119.77 121.973 119.776 121.973 119.781 121.973H119.781C121.137 121.99 121.003 123.003 120.818 124.336H120.818Z" fill="#C2D7F2"/>
<path d="M111.903 60.6804L111.11 60.6798C109.366 60.6786 108.128 59.2379 108.347 57.4618L111.224 34.1072C111.443 32.331 113.035 30.8915 114.78 30.8926L115.572 30.8931C117.317 30.8943 118.554 32.3351 118.336 34.1113L115.459 57.4665C115.24 59.2422 113.648 60.6817 111.903 60.6805L111.903 60.6804Z" fill="#11DD9C"/>
<path d="M111.904 60.6802C111.903 60.6802 111.903 60.6802 111.902 60.6802L111.11 60.6797C110.615 60.6792 110.16 60.5628 109.768 60.356C110.16 60.5629 110.615 60.6792 111.11 60.6797L111.902 60.6802C111.903 60.6802 111.903 60.6802 111.904 60.6802Z" fill="#5C3B2D"/>
<path d="M113.219 60.4049C113.369 60.3403 113.516 60.2654 113.656 60.1812C113.516 60.266 113.369 60.3403 113.219 60.4049Z" fill="#FBCFAA"/>
<path d="M118.219 35.052L118.335 34.1111C118.336 34.1046 118.337 34.0983 118.337 34.0918C118.337 34.0983 118.336 34.1046 118.335 34.1111L118.219 35.052Z" fill="#E74423"/>
<path d="M113.656 60.181C114.608 59.6113 115.317 58.6082 115.458 57.4662L116.025 52.863L115.458 57.4662C115.317 58.6082 114.608 59.6113 113.656 60.181Z" fill="#CAA486"/>
<path d="M111.91 60.6803C112.364 60.6791 112.807 60.581 113.218 60.4048C112.807 60.581 112.364 60.6791 111.91 60.6803Z" fill="#5C3B2D"/>
<path d="M108.348 57.4617L108.43 56.7858H108.431L108.348 57.4617ZM118.339 34.0878C118.339 34.082 118.34 34.0768 118.34 34.071C118.34 34.0768 118.339 34.082 118.339 34.0878ZM118.34 34.0687C118.371 33.7997 118.367 33.5381 118.333 33.2888C118.367 33.5381 118.371 33.7997 118.34 34.0687ZM118.333 33.287C118.332 33.2817 118.331 33.2755 118.331 33.2702C118.331 33.276 118.332 33.2817 118.333 33.287ZM118.33 33.2684C118.329 33.2627 118.328 33.2562 118.328 33.2505C118.328 33.2562 118.329 33.262 118.33 33.2684ZM118.327 33.2475C118.326 33.2429 118.325 33.2382 118.325 33.2337C118.325 33.2382 118.326 33.2429 118.327 33.2475ZM118.323 33.2272C118.323 33.2231 118.323 33.2201 118.322 33.2167C118.322 33.2201 118.323 33.2237 118.323 33.2272ZM118.321 33.2091C118.321 33.2064 118.32 33.2034 118.319 33.1999C118.32 33.2034 118.321 33.2064 118.321 33.2091ZM118.317 33.1831C118.316 33.1813 118.316 33.1801 118.316 33.179C118.316 33.1802 118.316 33.1813 118.317 33.1831ZM118.314 33.1668C118.314 33.1656 118.313 33.165 118.313 33.1638C118.313 33.165 118.314 33.1656 118.314 33.1668Z" fill="#E74423"/>
<path d="M111.905 60.6803C111.904 60.6803 111.904 60.6803 111.903 60.6803L111.111 60.6797C110.616 60.6792 110.161 60.5629 109.769 60.356C109.28 60.0975 108.889 59.6975 108.637 59.2053C108.435 58.8114 108.323 58.3585 108.322 57.8715C108.322 57.7372 108.331 57.6006 108.348 57.4617L108.431 56.7858C108.786 56.9445 109.185 57.0341 109.616 57.0341H110.409C110.41 57.0341 110.41 57.0341 110.411 57.0341C112.155 57.0341 113.746 55.5961 113.964 53.8201L116.758 31.1418C117.573 31.5075 118.149 32.2485 118.313 33.1638C118.313 33.165 118.313 33.1656 118.313 33.1668C118.314 33.1709 118.315 33.1748 118.316 33.179C118.316 33.1802 118.316 33.1813 118.316 33.1831C118.318 33.1889 118.318 33.1941 118.319 33.1999C118.32 33.2034 118.321 33.2064 118.321 33.2091C118.321 33.2116 118.322 33.2139 118.322 33.2167C118.323 33.2201 118.323 33.2231 118.324 33.2272C118.324 33.2289 118.325 33.2312 118.325 33.2337C118.325 33.2382 118.327 33.2429 118.327 33.2475C118.327 33.2487 118.327 33.2493 118.328 33.2505C118.328 33.2562 118.329 33.2627 118.33 33.2684C118.33 33.269 118.33 33.2696 118.331 33.2702C118.331 33.2755 118.332 33.2817 118.333 33.287C118.333 33.2876 118.333 33.2882 118.333 33.2888C118.367 33.5381 118.371 33.7997 118.34 34.0687C118.34 34.0693 118.34 34.0705 118.34 34.071C118.34 34.0768 118.339 34.082 118.339 34.0878C118.338 34.089 118.338 34.0908 118.338 34.0919C118.337 34.0983 118.336 34.1047 118.336 34.1112L118.219 35.052L116.026 52.8633L115.459 57.4664C115.318 58.6085 114.609 59.6116 113.657 60.1813C113.516 60.2654 113.37 60.3404 113.219 60.405C112.808 60.5812 112.365 60.6793 111.912 60.6805C111.909 60.6805 111.907 60.6805 111.905 60.6805L111.905 60.6803Z" fill="#35B88F"/>
<path d="M121.463 128.339C121.047 131.744 119.743 134.387 118.55 134.241C117.356 134.095 116.726 131.217 117.142 127.812C117.558 124.406 118.862 121.763 120.055 121.909C121.249 122.055 121.879 124.934 121.463 128.339V128.339Z" fill="#2B67B5"/>
<path d="M120.334 128.242C120.198 129.349 119.657 130.194 119.124 130.129C118.591 130.063 118.269 129.113 118.404 128.007C118.539 126.9 119.081 126.055 119.613 126.121C120.146 126.186 120.469 127.136 120.334 128.243V128.242Z" fill="#684232"/>
</g>
<defs>
<clipPath id="clip0_18769_434">
<rect width="166" height="148" fill="white"/>
</clipPath>
</defs>
</svg>
