<svg fill="none" xmlns="http://www.w3.org/2000/svg" width="72px" height="56px">
<path opacity="0.15" d="M60 48V50C60 53.3138 57.3138 56 54 56H6C2.68625 56 0 53.3138 0 50V18C0 14.6862 2.68625 12 6 12H8V18H6.75C6.55109 18 6.36032 18.079 6.21967 18.2197C6.07902 18.3603 6 18.5511 6 18.75V49.25C6 49.4489 6.07902 49.6397 6.21967 49.7803C6.36032 49.921 6.55109 50 6.75 50H53.25C53.4489 50 53.6397 49.921 53.7803 49.7803C53.921 49.6397 54 49.4489 54 49.25V48H60ZM65.25 6H18.75C18.5511 6 18.3603 6.07902 18.2197 6.21967C18.079 6.36032 18 6.55109 18 6.75V37.25C18 37.4489 18.079 37.6397 18.2197 37.7803C18.3603 37.921 18.5511 38 18.75 38H65.25C65.4489 38 65.6397 37.921 65.7803 37.7803C65.921 37.6397 66 37.4489 66 37.25V6.75C66 6.55109 65.921 6.36032 65.7803 6.21967C65.6397 6.07902 65.4489 6 65.25 6ZM66 0C69.3138 0 72 2.68625 72 6V38C72 41.3138 69.3138 44 66 44H18C14.6862 44 12 41.3138 12 38V6C12 2.68625 14.6862 0 18 0H66ZM33 14C33 16.7614 30.7614 19 28 19C25.2386 19 23 16.7614 23 14C23 11.2386 25.2386 9 28 9C30.7614 9 33 11.2386 33 14ZM24 26L28.9394 21.0606C29.5251 20.4749 30.4749 20.4749 31.0607 21.0606L36 26L48.9394 13.0606C49.5251 12.4749 50.4749 12.4749 51.0607 13.0606L60 22V32H24V26Z" fill="black"/>
</svg>
