<?xml version="1.0" encoding="UTF-8"?>
<svg width="2464px" height="337px" version="1.1" viewBox="0 0 3762.6 514" xml:space="preserve" xmlns="http://www.w3.org/2000/svg">
<path d="m529.55 282.87h212.02c1.68-9.56 2.8-19.12 2.8-29.81 0-82.66-59.04-148.46-142.27-148.46-88.3 0-148.46 64.68-148.46 148.46 0 83.79 59.61 148.46 154.09 148.46 53.98 0 96.15-21.92 122.58-60.16l-58.48-33.75c-12.38 16.31-34.87 28.12-62.98 28.12-38.25 0-69.17-15.74-79.3-52.86zm-139.34-53.58 0.02-2.27c0-11.32-1.64-22.25-4.7-32.57-5.02-18.37-13.94-33.79-26.07-45.55-20.9-22.41-50.7-36.43-83.77-36.43-31.42 0-59.88 12.66-80.57 33.14-20.69-20.48-49.15-33.14-80.58-33.14-33.07 0-62.86 14.02-83.77 36.43-12.13 11.76-21.04 27.18-26.07 45.55-3.05 10.32-4.7 21.25-4.7 32.57l0.02 2.29-0.02 2.14v162.2h67.94v-157.46c0-31.08 15.79-50.03 44.23-50.03l2.37 0.04 2.37-0.04c28.44 0 44.24 18.95 44.24 50.03v157.46h67.93v-157.46c0-31.08 15.8-50.03 44.24-50.03l2.37 0.04 2.37-0.04c28.44 0 44.24 18.95 44.24 50.03v157.46h67.93v-162.2l-0.02-2.16zm138.22-2.66c8.43-35.99 34.86-56.8 73.67-56.8 30.37 0 60.73 16.3 69.73 56.8h-143.4zm477.44-226.63v145.65c-20.24-25.86-50.05-41.05-91.1-41.05-75.35 0-137.22 64.68-137.22 148.46 0 83.79 61.87 148.46 137.22 148.46 41.05 0 70.86-15.18 91.1-41.05v33.18h72.55v-393.65h-72.55zm-77.6 332.36c-44.99 0-78.17-32.06-78.17-79.3 0-47.23 33.18-79.29 78.17-79.29 44.42 0 77.6 32.06 77.6 79.29 0 47.24-33.18 79.3-77.6 79.3zm430.21-219.89v33.18c-20.25-25.31-50.62-41.05-91.67-41.05-74.8 0-136.65 64.68-136.65 148.46 0 83.79 61.85 148.46 136.65 148.46 41.05 0 71.42-15.74 91.67-41.05v33.18h72.54v-281.18h-72.54zm-78.17 219.89c-44.43 0-77.61-32.06-77.61-79.3 0-47.23 33.18-79.29 77.61-79.29 44.99 0 78.17 32.06 78.17 79.29 0 47.24-33.18 79.3-78.17 79.3zm431.89-219.89v34.87c-19.68-26.43-50.05-42.74-89.98-42.74-79.86 0-140.03 65.23-140.03 143.97 0 79.29 60.17 143.96 140.03 143.96 39.93 0 70.3-16.3 89.98-42.73v30.35c0 44.43-28.12 69.17-73.68 69.17-43.3 0-61.85-17.42-73.66-39.36l-61.86 35.43c24.74 45.55 73.11 68.61 133.28 68.61 74.23 0 146.78-41.62 146.78-133.85v-267.68h-70.86zm-78.74 213.13c-45.54 0-78.72-32.04-78.72-77.03 0-44.43 33.18-76.49 78.72-76.49 45.56 0 78.74 32.06 78.74 76.49 0 44.99-33.18 77.03-78.74 77.03zm287.93-164.76v-48.37h-72.54v281.18h72.54v-134.4c0-59.05 47.8-75.92 85.48-71.43v-80.98c-35.42 0-70.86 15.76-85.48 54zm178.27 122.03h212.01c1.69-9.56 2.81-19.12 2.81-29.81 0-82.66-59.05-148.46-142.28-148.46-88.3 0-148.46 64.68-148.46 148.46 0 83.79 59.61 148.46 154.09 148.46 53.98 0 96.15-21.92 122.58-60.16l-58.47-33.75c-12.38 16.31-34.87 28.12-62.99 28.12-38.24 0-69.17-15.74-79.29-52.86zm-1.12-56.24c8.42-35.99 34.85-56.8 73.66-56.8 30.37 0 60.73 16.3 69.74 56.8h-143.4zm479.69-114.16v34.87c-19.68-26.43-50.05-42.74-89.98-42.74-79.86 0-140.02 65.23-140.02 143.97 0 79.29 60.16 143.96 140.02 143.96 39.93 0 70.3-16.3 89.98-42.73v30.35c0 44.43-28.11 69.17-73.67 69.17-43.31 0-61.86-17.42-73.67-39.36l-61.86 35.43c24.74 45.55 73.11 68.61 133.29 68.61 74.23 0 146.77-41.62 146.77-133.85v-267.68h-70.86zm-78.74 213.13c-45.54 0-78.72-32.04-78.72-77.03 0-44.43 33.18-76.49 78.72-76.49 45.56 0 78.74 32.06 78.74 76.49 0 44.99-33.18 77.03-78.74 77.03zm429.09-213.13v33.18c-20.25-25.31-50.62-41.05-91.67-41.05-74.8 0-136.65 64.68-136.65 148.46 0 83.79 61.85 148.46 136.65 148.46 41.05 0 71.42-15.74 91.67-41.05v33.18h72.54v-281.18h-72.54zm-78.17 219.89c-44.42 0-77.61-32.06-77.61-79.3 0-47.23 33.19-79.29 77.61-79.29 44.99 0 78.17 32.06 78.17 79.29 0 47.24-33.18 79.3-78.17 79.3zm377.35-150.15v-69.74h-63.56v-78.72l-72.54 21.92v56.8h-48.92v69.74h48.92v116.97c0 75.91 34.3 105.72 136.1 94.47v-65.79c-41.62 2.24-63.56 1.69-63.56-28.68v-116.97h63.56zm176.58 219.31c82.66 0 149.02-64.67 149.02-148.46 0-83.78-66.36-148.46-149.02-148.46-82.67 0-148.47 64.68-148.47 148.46 0 83.79 65.8 148.46 148.47 148.46zm0-70.85c-42.74 0-75.92-32.06-75.92-77.61 0-45.54 33.18-77.6 75.92-77.6 43.3 0 76.48 32.06 76.48 77.6 0 45.55-33.18 77.61-76.48 77.61zm272.74-169.83v-48.37h-72.54v281.18h72.54v-134.4c0-59.05 47.8-75.92 85.47-71.43v-80.98c-35.42 0-70.85 15.76-85.47 54z"/>
</svg>
