<svg id="Слой_1" data-name="Слой 1" xmlns="http://www.w3.org/2000/svg" viewBox="0 0 253.48 48.35"><defs><style>.cls-1{fill:#c45448;}.cls-2{fill:#8a2e00;}.cls-3{fill:#db6563;}.cls-4{fill:#a53732;}.cls-5{fill:#c95d5d;}.cls-6{fill:#a3423b;}.cls-7{fill:#ba3d3a;}.cls-8{fill:#af3c3c;}.cls-9{fill:#8e3932;}.cls-10{fill:#af4e4b;}</style></defs><title>KLIO_LOGO_RED_F</title><path class="cls-1" d="M90.7,18.6a.52.52,0,0,0,.4-.2c1.2-1,2.5-1.9,3.8-2.9.7-.6,1.5-1.1,2.3-1.7l3.4-2.6,2.3-1.8c1.1-.9,2.2-1.7,3.3-2.6l1.6-1.2c1.1-.9,2.3-1.7,3.4-2.6.6-.4,1.2-.9,1.8-1.3a.6.6,0,0,1,.4-.1h13c.1,0,.1,0,.2.1-.1.1-.2.3-.4.3A39.19,39.19,0,0,0,123,4.5l-2.5,1.8c-.8.6-1.6,1.2-2.4,1.9s-1.7,1.3-2.5,1.9-1.6,1.2-2.3,1.8c-1,.8-2.1,1.6-3.2,2.4-.8.6-1.6,1.2-2.5,1.9s-1.7,1.2-2.5,1.9c-.5.4-.5.4-.2.9.8,1.5,1.7,2.9,2.5,4.4l1.7,2.9c.6,1.1,1.2,2.1,1.8,3.2s1.1,2,1.7,3c.8,1.5,1.7,2.9,2.5,4.4.6,1.1,1.3,2.2,1.9,3.3.5.9,1,1.9,1.6,2.8.1.1,0,.1-.1.2H105.9a.55.55,0,0,1-.5-.3c-.6-1-1.2-1.9-1.7-2.9s-1.2-2-1.7-3-1.2-2.1-1.8-3.2l-1.8-3.3c-.6-1.1-1.2-2-1.7-3.1l-1-1.7c-.1-.2-.2-.2-.4-.1l-2.7,2.1L90,29.5c-.6.4-1.2.9-1.8,1.3a.71.71,0,0,0-.3.6l-.6,2.7c-.2.9-.3,1.6-.5,2.4s-.3,1.4-.5,2.2-.2,1.3-.4,2-.3,1.6-.5,2.4c0,.2-.2.2-.3.2H74c-.6,0-.6,0-.5-.5a14.19,14.19,0,0,0,.5-2.2l.6-2.7c.2-.9.3-1.8.5-2.6.3-1.2.5-2.4.8-3.6.3-1,.4-2,.6-3s.5-2.2.7-3.2.5-2.3.8-3.5.5-2.2.8-3.4.5-2.3.7-3.4.5-2.2.7-3.3.5-2,.7-3,.4-1.7.6-2.6a18.29,18.29,0,0,1,.6-2.5c.2-.6.2-1.2.4-1.8,0-.2.2-.2.3-.2H94.2c.3,0,.3.1.2.3a17.42,17.42,0,0,0-.5,2.2c-.1.5-.2,1-.3,1.6A20.93,20.93,0,0,1,93.1,8c-.1.5-.2,1.1-.3,1.6a24.6,24.6,0,0,1-.7,2.9c-.2.8-.3,1.5-.5,2.3s-.3,1.4-.5,2.2c-.1.5-.2,1.1-.3,1.6C90.8,18.5,90.7,18.5,90.7,18.6Z" transform="translate(-0.1)"/><path class="cls-1" d="M184,28.3c.4-.4.7-.8,1.1-1.2l2.4-2.7,3-3.4,2.4-2.7,3-3.4,2.6-2.8c.1-.2.3-.2.6-.2H210c.2,0,.4-.1.3.2-.3,1-.4,2-.6,2.9s-.5,1.9-.7,2.9l-.6,3c-.2,1-.4,1.7-.6,2.5s-.3,1.5-.5,2.3a16.25,16.25,0,0,0-.4,1.9c-.1.7-.2,1-.3,1.6s-.3,1.2-.4,1.8-.2,1-.3,1.5-.3,1.3-.4,1.9-.2,1-.3,1.5-.2,1-.3,1.6-.3,1.3-.4,1.9l-.7,2.9c-.1.2,0,.5-.2.6a1.1,1.1,0,0,1-.8,0H193c-.4,0-.4-.2-.3-.3l.6-2.7c.2-.9.4-1.7.6-2.5.2-.6.2-1.3.4-2a14.91,14.91,0,0,0,.4-1.8c.1-.6.3-1.2.4-1.9a22.5,22.5,0,0,1,.5-2.2,12.86,12.86,0,0,0,.4-1.9c.1-.3.1-.6.2-.9v-.2l-.1.1c-1.8,2-3.6,3.9-5.3,5.9-1.1,1.3-2.1,2.5-3.2,3.7-1.3,1.5-2.7,3-4,4.5-.6.7-1.2,1.4-1.9,2.1a.52.52,0,0,1-.4.2h-11c-.2,0-.4,0-.3-.3.2-.7.3-1.5.5-2.2s.3-1.4.5-2.2.3-1.3.4-1.9l.6-2.7c.2-.7.3-1.5.5-2.2s.3-1.5.5-2.2c.1-.5.2-1.1.3-1.6s.3-1.2.4-1.8.2-1,.3-1.5.3-1.3.4-1.9l.4-1.8c.2-.8.3-1.6.5-2.3a11.63,11.63,0,0,0,.4-1.8c.2-1,.4-2,.7-3,.1-.5.2-.9.3-1.4,0-.2.1-.2.3-.2h10.5q.45,0,.3.3l-.3,1.5c-.2.9-.4,1.7-.6,2.6a16.25,16.25,0,0,1-.4,1.9c-.2.7-.3,1.5-.5,2.3s-.3,1.5-.5,2.2a24.6,24.6,0,0,1-.7,2.9,12.86,12.86,0,0,0-.4,1.9.75.75,0,0,0-.4.7Z" transform="translate(-0.1)"/><path class="cls-1" d="M153.4,42.9h-5.2c-.2,0-.3,0-.3-.2.1-.7.3-1.3.4-2a12.86,12.86,0,0,1,.4-1.9c.2-.7.3-1.5.5-2.3s.3-1.4.5-2.1.3-1.6.5-2.4.3-1.5.5-2.2.3-1.5.5-2.2a16.25,16.25,0,0,0,.4-1.9c.1-.6.3-1.3.4-1.9a11.63,11.63,0,0,1,.4-1.8c.2-.6.3-1.5.5-2.2a.6.6,0,0,1,.1-.4c.1-.1,0-.3-.3-.3h-7.1c-.4,0-.4.1-.5.4-.2.9-.4,1.8-.6,2.6-.2,1.3-.6,2.5-.9,3.8s-.8,2.7-1.2,4a20.54,20.54,0,0,1-1.6,3.8,10,10,0,0,1-2,2.9,19,19,0,0,1-2.1,1.9,20.29,20.29,0,0,1-3.5,2.1,28.64,28.64,0,0,1-4.1,1.5l-2.8.6a28.28,28.28,0,0,1-4.1.3h-.7c-.2,0-.3,0-.2-.2a19.8,19.8,0,0,1,.6-2.6,22.68,22.68,0,0,0,.6-2.5l.3-1.5c0-.2.1-.3.4-.4a13.79,13.79,0,0,0,2.9-.8,9.38,9.38,0,0,0,3.2-1.9,6.91,6.91,0,0,0,1.6-2.2c.6-1.5,1.1-3.1,1.6-4.7.3-1,.5-2.1.8-3.1a19.48,19.48,0,0,0,.6-2.3c.2-1,.4-1.9.6-2.9s.5-2.2.7-3.2a22.11,22.11,0,0,0,.5-2.5.22.22,0,0,1,.2-.2h29.4c.4,0,.4,0,.3.4s-.2,1-.3,1.5l-.4,1.9a9.36,9.36,0,0,1-.4,1.6c-.2.5-.3,1.4-.5,2.1s-.2,1.1-.4,1.6c-.2.7-.3,1.5-.5,2.2l-.3,1.5c-.1.5-.3,1.3-.4,1.9s-.3,1.3-.4,1.9-.2,1-.3,1.5a12.44,12.44,0,0,1-.4,1.6l-.3,1.5a12.44,12.44,0,0,1-.4,1.6c-.2.8-.4,1.7-.6,2.6a16.25,16.25,0,0,1-.4,1.9c-.2.7-.3,1.5-.5,2.3a5.16,5.16,0,0,0-.2,1.1c0,.2-.1.3-.4.3Z" transform="translate(-0.1)"/><path class="cls-1" d="M253.5,23.1a12.82,12.82,0,0,0-.5-2.7,11.63,11.63,0,0,0-1.8-3.5,13.76,13.76,0,0,0-3-2.9,15.93,15.93,0,0,0-2.9-1.5,21.81,21.81,0,0,0-4.4-1.1c-1.3-.2-2.6-.2-3.9-.3h-1a15.53,15.53,0,0,0-3.1.3,17,17,0,0,0-3.1.6,28.64,28.64,0,0,0-4.1,1.5,13.85,13.85,0,0,0-3.3,2,28,28,0,0,0-3.9,3.8,23.15,23.15,0,0,0-2.8,4.8,15.83,15.83,0,0,0-.9,3.1,27,27,0,0,0-.4,2.8v1.6a12.25,12.25,0,0,0,.2,1.9,9.38,9.38,0,0,0,1,2.8,13,13,0,0,0,2.8,3.4,20.28,20.28,0,0,0,1.8,1.3,12.62,12.62,0,0,0,3.3,1.6,26.81,26.81,0,0,0,2.7.7,25.79,25.79,0,0,0,3.9.4,17.7,17.7,0,0,0,2.3-.1,28.5,28.5,0,0,0,2.9-.3c1-.1,2-.4,3-.6a20.5,20.5,0,0,0,4.1-1.6,21.61,21.61,0,0,0,4.3-2.9,19.86,19.86,0,0,0,3.1-3.4,18.68,18.68,0,0,0,3.3-7.3,28.86,28.86,0,0,0,.4-2.9A3.78,3.78,0,0,0,253.5,23.1ZM241.9,25a24.77,24.77,0,0,1-.3,2.7,21.28,21.28,0,0,1-.8,2.7,11.05,11.05,0,0,1-2.2,3.4,7.87,7.87,0,0,1-5.5,2.7,4.1,4.1,0,0,0-1.1.1,7.11,7.11,0,0,1-3.2-.7,5.1,5.1,0,0,1-2.2-2.6,10.62,10.62,0,0,1-.4-1.9V30a15.87,15.87,0,0,1,.6-3.8,15.4,15.4,0,0,1,1.5-3.5,9.41,9.41,0,0,1,3.8-3.6,7.86,7.86,0,0,1,2.6-.8,10.28,10.28,0,0,1,1.7-.1c2.5.1,4.4,1,5.2,3.2a11.63,11.63,0,0,1,.4,1.8,10.87,10.87,0,0,1-.1,1.8Z" transform="translate(-0.1)"/><path class="cls-2" d="M11.76,0" transform="translate(-0.1)"/><path class="cls-3" d="M.1,13,11.76,0V13Zm11.66,0V0L23.42,13Z" transform="translate(-0.1)"/><path class="cls-4" d="M23.42,0V13L11.76,0Zm0,0V13L35.08,0Z" transform="translate(-0.1)"/><polyline class="cls-5" points="34.98 47.98 23.32 12.98 0 12.98"/><path class="cls-2" d="M58.4,0" transform="translate(-0.1)"/><path class="cls-6" d="M58.4,13V0L70.07,13Zm0,0V0L46.74,13Z" transform="translate(-0.1)"/><path class="cls-7" d="M35.15,13V48.35L23.35,13Zm0,0V48.35L46.81,13Z" transform="translate(-0.1)"/><path class="cls-8" d="M58.4,0,46.74,13V0ZM35.08,0,46.74,13V0Z" transform="translate(-0.1)"/><polyline class="cls-9" points="34.98 47.98 46.64 12.98 69.97 12.98"/><path class="cls-10" d="M23.42,13,35.08,0V13Zm23.32,0L35.08,0V13Z" transform="translate(-0.1)"/></svg>