<svg width="500" height="240" viewBox="0 0 500 240" fill="none" xmlns="http://www.w3.org/2000/svg">
<path d="M104.73 140.376V155.475H57.7689V175.542C62.2766 175.069 66.8059 174.827 71.3387 174.819C81.3214 174.531 91.1826 177.056 99.7868 182.103C103.924 184.596 107.312 188.15 109.597 192.393C111.882 196.636 112.979 201.412 112.775 206.222C112.902 210.28 112.144 214.317 110.555 218.056C108.965 221.795 106.582 225.147 103.567 227.882C93.8743 236.613 77.8813 239.363 63.0029 239.363C55.0038 239.397 47.0096 238.962 39.0619 238.06V140.376H104.73ZM57.6235 224.601C61.2933 225.176 65.0079 225.418 68.7216 225.325C75.5778 225.54 82.2896 223.336 87.6709 219.102C89.4243 217.468 90.8134 215.486 91.7484 213.284C92.6834 211.082 93.1435 208.709 93.0989 206.319C93.1684 203.654 92.5279 201.019 91.2425 198.68C89.9572 196.342 88.0728 194.383 85.7809 193.005C80.3745 189.936 74.214 188.432 67.9947 188.663C64.9415 188.663 61.1613 188.953 57.6235 189.242V224.601Z" fill="#0069B6"/>
<path d="M184.598 220.984C184.532 226.762 184.921 232.536 185.761 238.254H168.799L167.491 230.15H167.054C164.189 233.346 160.646 235.87 156.682 237.538C152.718 239.206 148.431 239.978 144.131 239.797C128.235 239.797 120.19 228.895 120.19 218.717C120.19 201.013 136.377 191.558 165.891 191.703V191.076C165.891 187.313 164.437 178.582 150.286 178.727C142.832 178.775 135.525 180.789 129.107 184.564L125.473 172.504C133.956 167.87 143.521 165.557 153.194 165.798C177.426 165.798 184.55 180.753 184.55 196.43L184.598 220.984ZM166.376 204.004C151.837 203.715 139.091 206.754 139.091 216.932C139.045 218.351 139.315 219.763 139.88 221.067C140.446 222.371 141.293 223.534 142.363 224.474C143.432 225.414 144.697 226.107 146.066 226.505C147.436 226.902 148.877 226.994 150.286 226.773C153.65 226.829 156.953 225.874 159.763 224.033C162.573 222.191 164.76 219.548 166.037 216.45C166.403 215.181 166.55 213.86 166.473 212.542L166.376 204.004Z" fill="#0069B6"/>
<path d="M264.563 167.535V238.253H245.711V181.765H224.29V196.237C224.29 214.278 222.254 226.29 214.597 232.706C210.09 237.53 204.08 239.845 193.903 239.845L192.304 225.373C195.237 224.941 198.008 223.761 200.349 221.948C206.067 217.607 206.794 209.744 206.794 194.934V167.535H264.563Z" fill="#0069B6"/>
<path d="M340.602 220.984C340.538 226.762 340.927 232.536 341.765 238.253H324.755L323.446 230.149H323.01C320.145 233.346 316.602 235.869 312.638 237.538C308.674 239.206 304.387 239.978 300.087 239.797C284.191 239.797 276.146 228.895 276.146 218.717C276.146 201.013 292.333 191.558 321.798 191.703V191.076C321.798 187.313 320.344 178.582 306.193 178.726C298.74 178.779 291.433 180.793 285.014 184.563L281.38 172.503C289.864 167.872 299.428 165.559 309.101 165.798C333.333 165.798 340.457 180.752 340.457 196.43L340.602 220.984ZM322.331 204.004C307.792 203.714 295.046 206.753 295.046 216.932C295.032 218.326 295.32 219.706 295.893 220.978C296.465 222.25 297.308 223.384 298.363 224.3C299.417 225.217 300.659 225.896 302.003 226.289C303.346 226.683 304.759 226.782 306.145 226.58C309.51 226.643 312.816 225.69 315.627 223.848C318.439 222.005 320.624 219.359 321.895 216.256C322.266 214.989 322.414 213.667 322.331 212.349V204.004Z" fill="#0069B6"/>
<path d="M376.029 167.535V194.114H406.707V167.535H425.511V238.253H406.707V208.345H376.029V238.253H357.225V167.535H376.029Z" fill="#0069B6"/>
<path d="M499.514 235.938C492.26 238.755 484.522 240.132 476.737 239.99C452.505 239.99 437.336 225.181 437.336 203.521C437.336 181.862 452.795 165.75 479.79 165.75C486.534 165.714 493.226 166.942 499.514 169.368L496.171 183.357C491.305 181.053 485.949 179.96 480.565 180.173C465.687 180.173 456.333 189.821 456.624 202.846C456.624 217.318 467.432 225.518 480.565 225.518C486.169 225.563 491.725 224.48 496.897 222.334L499.514 235.938Z" fill="#0069B6"/>
<path d="M203.597 36.6136V117.656L213.289 118.041L212.32 156.633H198.266L197.151 131.934H133.857L132.743 156.633H118.834L117.961 118.041L126.055 117.656C130.063 111.333 133.316 104.565 135.747 97.4915C139.258 86.0567 140.895 74.1335 140.594 62.1804V36.6136H203.597ZM157.265 67.1008C157.572 78.8824 155.851 90.6294 152.177 101.833C150.202 107.228 147.634 112.388 144.519 117.221H185.229V51.2784H157.265V67.1008Z" fill="#0069B6"/>
<path d="M235.581 102.412C236.163 113.989 246.631 119.778 258.699 119.778C265.937 119.94 273.145 118.796 279.974 116.401L282.834 128.702C274.451 132.026 265.491 133.665 256.469 133.526C232.237 133.526 218.135 119.392 218.135 98.3598C218.135 80.7042 229.911 61.3603 254.579 61.3603C279.247 61.3603 286.904 81.5725 286.904 95.4172C286.885 97.7774 286.576 100.126 285.984 102.412H235.581ZM269.506 89.8214C269.645 87.6586 269.324 85.4909 268.563 83.4603C267.802 81.4297 266.619 79.5819 265.09 78.0381C263.562 76.4943 261.724 75.2891 259.695 74.5016C257.667 73.7141 255.494 73.362 253.319 73.4684C248.815 73.4943 244.48 75.1798 241.151 78.1997C237.821 81.2196 235.734 85.3598 235.291 89.8214H269.506Z" fill="#0069B6"/>
<path d="M316.468 62.7591V88.6153H346.273V62.7591H364.593V131.789H346.225V102.846H316.468V131.789H298.149V62.7591H316.468Z" fill="#0069B6"/>
<path d="M435.058 62.7591V76.6037H412.619V131.789H394.348V76.8449H371.91V62.7591H435.058Z" fill="#0069B6"/>
<path d="M498.885 114.954C498.826 120.57 499.199 126.182 500 131.742H483.571L482.262 123.83H481.826C479.075 126.988 475.65 129.492 471.801 131.162C467.952 132.831 463.777 133.623 459.581 133.478C444.121 133.478 436.319 122.866 436.319 112.977C436.319 95.7551 452.069 86.5897 480.711 86.7344V85.9143C480.711 82.2482 479.306 73.7581 465.542 73.9028C458.314 73.9547 451.226 75.9014 444.994 79.5468L441.456 67.5835C449.703 63.0849 459 60.8381 468.402 61.0712C491.955 61.0712 498.885 75.5429 498.885 90.883V114.954ZM481.148 98.4566C466.609 98.1671 454.638 101.158 454.638 111.047C454.638 112.395 454.922 113.729 455.471 114.961C456.021 116.194 456.824 117.298 457.829 118.202C458.833 119.107 460.017 119.791 461.304 120.213C462.591 120.634 463.952 120.781 465.3 120.647C468.571 120.705 471.784 119.778 474.516 117.987C477.249 116.197 479.375 113.626 480.615 110.613C480.981 109.377 481.129 108.088 481.051 106.802L481.148 98.4566Z" fill="#0069B6"/>
<path d="M58.1077 36.324C60.8378 36.324 63.051 34.1211 63.051 31.4036C63.051 28.6862 60.8378 26.4832 58.1077 26.4832C55.3776 26.4832 53.1644 28.6862 53.1644 31.4036C53.1644 34.1211 55.3776 36.324 58.1077 36.324Z" fill="#0069B6"/>
<path d="M58.1077 23.1065C60.8378 23.1065 63.051 20.9036 63.051 18.1861C63.051 15.4687 60.8378 13.2657 58.1077 13.2657C55.3776 13.2657 53.1644 15.4687 53.1644 18.1861C53.1644 20.9036 55.3776 23.1065 58.1077 23.1065Z" fill="#0069B6"/>
<path d="M58.1077 9.8408C60.8378 9.8408 63.051 7.63786 63.051 4.9204C63.051 2.20294 60.8378 0 58.1077 0C55.3776 0 53.1644 2.20294 53.1644 4.9204C53.1644 7.63786 55.3776 9.8408 58.1077 9.8408Z" fill="#0069B6"/>
<path d="M44.8778 36.324C47.6079 36.324 49.8211 34.1211 49.8211 31.4036C49.8211 28.6862 47.6079 26.4832 44.8778 26.4832C42.1477 26.4832 39.9345 28.6862 39.9345 31.4036C39.9345 34.1211 42.1477 36.324 44.8778 36.324Z" fill="#0069B6"/>
<path d="M44.8778 23.1065C47.6079 23.1065 49.8211 20.9036 49.8211 18.1861C49.8211 15.4687 47.6079 13.2657 44.8778 13.2657C42.1477 13.2657 39.9345 15.4687 39.9345 18.1861C39.9345 20.9036 42.1477 23.1065 44.8778 23.1065Z" fill="#0069B6"/>
<path d="M44.8778 9.8408C47.6079 9.8408 49.8211 7.63786 49.8211 4.9204C49.8211 2.20294 47.6079 0 44.8778 0C42.1477 0 39.9345 2.20294 39.9345 4.9204C39.9345 7.63786 42.1477 9.8408 44.8778 9.8408Z" fill="#0069B6"/>
<path d="M71.4358 9.79258C74.1391 9.79258 76.3306 7.61124 76.3306 4.92041C76.3306 2.22959 74.1391 0.0482537 71.4358 0.0482537C68.7324 0.0482537 66.5409 2.22959 66.5409 4.92041C66.5409 7.61124 68.7324 9.79258 71.4358 9.79258Z" fill="#0069B6"/>
<path d="M71.4358 36.324C74.1659 36.324 76.379 34.1211 76.379 31.4036C76.379 28.6862 74.1659 26.4832 71.4358 26.4832C68.7056 26.4832 66.4925 28.6862 66.4925 31.4036C66.4925 34.1211 68.7056 36.324 71.4358 36.324Z" fill="#0069B6"/>
<path d="M71.4358 23.0583C74.1391 23.0583 76.3306 20.877 76.3306 18.1862C76.3306 15.4953 74.1391 13.314 71.4358 13.314C68.7324 13.314 66.5409 15.4953 66.5409 18.1862C66.5409 20.877 68.7324 23.0583 71.4358 23.0583Z" fill="#0069B6"/>
<path d="M71.4358 36.324C74.1659 36.324 76.379 34.1211 76.379 31.4036C76.379 28.6862 74.1659 26.4832 71.4358 26.4832C68.7056 26.4832 66.4925 28.6862 66.4925 31.4036C66.4925 34.1211 68.7056 36.324 71.4358 36.324Z" fill="#0069B6"/>
<path d="M44.8778 89.2422C47.6079 89.2422 49.8211 87.0393 49.8211 84.3218C49.8211 81.6044 47.6079 79.4014 44.8778 79.4014C42.1477 79.4014 39.9345 81.6044 39.9345 84.3218C39.9345 87.0393 42.1477 89.2422 44.8778 89.2422Z" fill="#0069B6"/>
<path d="M58.1077 89.2422C60.8378 89.2422 63.051 87.0393 63.051 84.3218C63.051 81.6044 60.8378 79.4014 58.1077 79.4014C55.3776 79.4014 53.1644 81.6044 53.1644 84.3218C53.1644 87.0393 55.3776 89.2422 58.1077 89.2422Z" fill="#0069B6"/>
<path d="M71.4358 89.194C74.1391 89.194 76.3306 87.0127 76.3306 84.3219C76.3306 81.631 74.1391 79.4497 71.4358 79.4497C68.7324 79.4497 66.5409 81.631 66.5409 84.3219C66.5409 87.0127 68.7324 89.194 71.4358 89.194Z" fill="#0069B6"/>
<path d="M44.8778 102.412C47.5811 102.412 49.7726 100.23 49.7726 97.5393C49.7726 94.8485 47.5811 92.6672 44.8778 92.6672C42.1745 92.6672 39.983 94.8485 39.983 97.5393C39.983 100.23 42.1745 102.412 44.8778 102.412Z" fill="#0069B6"/>
<path d="M58.1077 102.46C60.8378 102.46 63.051 100.257 63.051 97.5393C63.051 94.8219 60.8378 92.6189 58.1077 92.6189C55.3776 92.6189 53.1644 94.8219 53.1644 97.5393C53.1644 100.257 55.3776 102.46 58.1077 102.46Z" fill="#0069B6"/>
<path d="M71.4358 102.412C74.1391 102.412 76.3306 100.23 76.3306 97.5393C76.3306 94.8485 74.1391 92.6672 71.4358 92.6672C68.7324 92.6672 66.5409 94.8485 66.5409 97.5393C66.5409 100.23 68.7324 102.412 71.4358 102.412Z" fill="#0069B6"/>
<path d="M31.5498 62.759C34.2531 62.759 36.4446 60.5777 36.4446 57.8869C36.4446 55.1961 34.2531 53.0147 31.5498 53.0147C28.8464 53.0147 26.6549 55.1961 26.6549 57.8869C26.6549 60.5777 28.8464 62.759 31.5498 62.759Z" fill="#0069B6"/>
<path d="M18.2713 62.759C20.9747 62.759 23.1662 60.5777 23.1662 57.8869C23.1662 55.1961 20.9747 53.0147 18.2713 53.0147C15.568 53.0147 13.3765 55.1961 13.3765 57.8869C13.3765 60.5777 15.568 62.759 18.2713 62.759Z" fill="#0069B6"/>
<path d="M4.94329 62.8074C7.6734 62.8074 9.88659 60.6044 9.88659 57.887C9.88659 55.1695 7.6734 52.9666 4.94329 52.9666C2.21319 52.9666 0 55.1695 0 57.887C0 60.6044 2.21319 62.8074 4.94329 62.8074Z" fill="#0069B6"/>
<path d="M31.5497 76.0248C34.2798 76.0248 36.493 73.8218 36.493 71.1044C36.493 68.3869 34.2798 66.184 31.5497 66.184C28.8196 66.184 26.6064 68.3869 26.6064 71.1044C26.6064 73.8218 28.8196 76.0248 31.5497 76.0248Z" fill="#0069B6"/>
<path d="M18.2713 76.0248C21.0014 76.0248 23.2146 73.8218 23.2146 71.1044C23.2146 68.3869 21.0014 66.184 18.2713 66.184C15.5412 66.184 13.328 68.3869 13.328 71.1044C13.328 73.8218 15.5412 76.0248 18.2713 76.0248Z" fill="#0069B6"/>
<path d="M4.94329 76.0249C7.6734 76.0249 9.88659 73.8219 9.88659 71.1045C9.88659 68.387 7.6734 66.1841 4.94329 66.1841C2.21319 66.1841 0 68.387 0 71.1045C0 73.8219 2.21319 76.0249 4.94329 76.0249Z" fill="#0069B6"/>
<path d="M4.94329 49.5416C7.6734 49.5416 9.88659 47.3386 9.88659 44.6212C9.88659 41.9037 7.6734 39.7008 4.94329 39.7008C2.21319 39.7008 0 41.9037 0 44.6212C0 47.3386 2.21319 49.5416 4.94329 49.5416Z" fill="#0069B6"/>
<path d="M31.5497 49.5898C34.2798 49.5898 36.493 47.3868 36.493 44.6694C36.493 41.9519 34.2798 39.749 31.5497 39.749C28.8196 39.749 26.6064 41.9519 26.6064 44.6694C26.6064 47.3868 28.8196 49.5898 31.5497 49.5898Z" fill="#0069B6"/>
<path d="M18.2713 49.5416C20.9747 49.5416 23.1662 47.3602 23.1662 44.6694C23.1662 41.9786 20.9747 39.7972 18.2713 39.7972C15.568 39.7972 13.3765 41.9786 13.3765 44.6694C13.3765 47.3602 15.568 49.5416 18.2713 49.5416Z" fill="#0069B6"/>
<path d="M31.5497 49.5415C34.2798 49.5415 36.493 47.3386 36.493 44.6211C36.493 41.9037 34.2798 39.7007 31.5497 39.7007C28.8196 39.7007 26.6064 41.9037 26.6064 44.6211C26.6064 47.3386 28.8196 49.5415 31.5497 49.5415Z" fill="#0069B6"/>
<path d="M84.7142 76.0248C87.4443 76.0248 89.6574 73.8218 89.6574 71.1044C89.6574 68.3869 87.4443 66.184 84.7142 66.184C81.984 66.184 79.7709 68.3869 79.7709 71.1044C79.7709 73.8218 81.984 76.0248 84.7142 76.0248Z" fill="#0069B6"/>
<path d="M84.7142 62.759C87.4175 62.759 89.609 60.5777 89.609 57.8869C89.609 55.1961 87.4175 53.0147 84.7142 53.0147C82.0108 53.0147 79.8193 55.1961 79.8193 57.8869C79.8193 60.5777 82.0108 62.759 84.7142 62.759Z" fill="#0069B6"/>
<path d="M84.7142 49.5898C87.4443 49.5898 89.6574 47.3868 89.6574 44.6694C89.6574 41.9519 87.4443 39.749 84.7142 39.749C81.984 39.749 79.7709 41.9519 79.7709 44.6694C79.7709 47.3868 81.984 49.5898 84.7142 49.5898Z" fill="#0069B6"/>
<path d="M97.9937 76.0248C100.724 76.0248 102.937 73.8218 102.937 71.1044C102.937 68.3869 100.724 66.184 97.9937 66.184C95.2636 66.184 93.0504 68.3869 93.0504 71.1044C93.0504 73.8218 95.2636 76.0248 97.9937 76.0248Z" fill="#0069B6"/>
<path d="M97.9937 62.8073C100.724 62.8073 102.937 60.6043 102.937 57.8869C102.937 55.1694 100.724 52.9665 97.9937 52.9665C95.2636 52.9665 93.0504 55.1694 93.0504 57.8869C93.0504 60.6043 95.2636 62.8073 97.9937 62.8073Z" fill="#0069B6"/>
<path d="M97.9937 49.5898C100.724 49.5898 102.937 47.3868 102.937 44.6694C102.937 41.9519 100.724 39.749 97.9937 39.749C95.2636 39.749 93.0504 41.9519 93.0504 44.6694C93.0504 47.3868 95.2636 49.5898 97.9937 49.5898Z" fill="#0069B6"/>
<path d="M84.7142 76.0248C87.4443 76.0248 89.6574 73.8218 89.6574 71.1044C89.6574 68.3869 87.4443 66.184 84.7142 66.184C81.984 66.184 79.7709 68.3869 79.7709 71.1044C79.7709 73.8218 81.984 76.0248 84.7142 76.0248Z" fill="#0069B6"/>
<path d="M66.5022 71.4147C66.663 73.9876 68.8104 76.0248 71.4358 76.0248C74.1659 76.0248 76.3791 73.8219 76.3791 71.1044C76.3791 68.5953 74.4923 66.5249 72.0539 66.2221C70.7612 67.8896 69.251 69.3862 67.5584 70.6703C67.2114 70.9262 66.8593 71.1744 66.5022 71.4147Z" fill="#0069B6"/>
<path d="M49.5685 43.0642C48.9141 41.1098 47.0612 39.7007 44.8778 39.7007C42.1477 39.7007 39.9345 41.9037 39.9345 44.6211C39.9345 46.8485 41.4214 48.7303 43.4612 49.3365C44.9491 47.1098 46.8022 45.1399 48.9484 43.5116C49.1533 43.3597 49.36 43.2106 49.5685 43.0642Z" fill="#0069B6"/>
<path d="M84.7142 62.759C87.4175 62.759 89.609 60.5777 89.609 57.8869C89.609 55.1961 87.4175 53.0147 84.7142 53.0147C82.0108 53.0147 79.8193 55.1961 79.8193 57.8869C79.8193 60.5777 82.0108 62.759 84.7142 62.759Z" fill="#0069B6"/>
<path d="M84.7142 49.5898C87.4443 49.5898 89.6574 47.3868 89.6574 44.6694C89.6574 41.9519 87.4443 39.749 84.7142 39.749C81.984 39.749 79.7709 41.9519 79.7709 44.6694C79.7709 47.3868 81.984 49.5898 84.7142 49.5898Z" fill="#0069B6"/>
<path d="M97.9937 76.0248C100.724 76.0248 102.937 73.8218 102.937 71.1044C102.937 68.3869 100.724 66.184 97.9937 66.184C95.2636 66.184 93.0504 68.3869 93.0504 71.1044C93.0504 73.8218 95.2636 76.0248 97.9937 76.0248Z" fill="#0069B6"/>
<path d="M97.9937 62.8073C100.724 62.8073 102.937 60.6043 102.937 57.8869C102.937 55.1694 100.724 52.9665 97.9937 52.9665C95.2636 52.9665 93.0504 55.1694 93.0504 57.8869C93.0504 60.6043 95.2636 62.8073 97.9937 62.8073Z" fill="#0069B6"/>
<path d="M97.9937 49.5898C100.724 49.5898 102.937 47.3868 102.937 44.6694C102.937 41.9519 100.724 39.749 97.9937 39.749C95.2636 39.749 93.0504 41.9519 93.0504 44.6694C93.0504 47.3868 95.2636 49.5898 97.9937 49.5898Z" fill="#0069B6"/>
<path d="M111.272 76.0248C114.002 76.0248 116.215 73.8218 116.215 71.1044C116.215 68.3869 114.002 66.184 111.272 66.184C108.542 66.184 106.329 68.3869 106.329 71.1044C106.329 73.8218 108.542 76.0248 111.272 76.0248Z" fill="#0069B6"/>
<path d="M111.272 62.759C113.975 62.759 116.167 60.5777 116.167 57.8869C116.167 55.1961 113.975 53.0147 111.272 53.0147C108.569 53.0147 106.377 55.1961 106.377 57.8869C106.377 60.5777 108.569 62.759 111.272 62.759Z" fill="#0069B6"/>
<path d="M111.272 49.5898C114.002 49.5898 116.215 47.3868 116.215 44.6694C116.215 41.9519 114.002 39.749 111.272 39.749C108.542 39.749 106.329 41.9519 106.329 44.6694C106.329 47.3868 108.542 49.5898 111.272 49.5898Z" fill="#0069B6"/>
<path d="M44.8778 115.677C47.6079 115.677 49.8211 113.474 49.8211 110.757C49.8211 108.039 47.6079 105.836 44.8778 105.836C42.1477 105.836 39.9345 108.039 39.9345 110.757C39.9345 113.474 42.1477 115.677 44.8778 115.677Z" fill="#0069B6"/>
<path d="M58.1077 115.677C60.8378 115.677 63.051 113.474 63.051 110.757C63.051 108.039 60.8378 105.836 58.1077 105.836C55.3776 105.836 53.1644 108.039 53.1644 110.757C53.1644 113.474 55.3776 115.677 58.1077 115.677Z" fill="#0069B6"/>
<path d="M71.4358 115.677C74.1659 115.677 76.379 113.474 76.379 110.757C76.379 108.039 74.1659 105.836 71.4358 105.836C68.7056 105.836 66.4925 108.039 66.4925 110.757C66.4925 113.474 68.7056 115.677 71.4358 115.677Z" fill="#0069B6"/>
<path fill-rule="evenodd" clip-rule="evenodd" d="M76.3308 41.0995C76.3104 40.7 76.1482 40.3207 75.873 40.0291C75.5979 39.7376 75.2277 39.5528 74.8284 39.5076C73.9569 39.4526 73.0828 39.4526 72.2114 39.5076C67.9868 39.4093 63.7715 39.946 59.7077 41.0995C56.3513 42.0019 53.1949 43.5237 50.4027 45.5857C47.8502 47.5465 45.7511 50.0307 44.2478 52.8698C42.1443 56.8688 40.8749 61.2499 40.5161 65.7497C40.5161 67.8722 40.5161 69.9947 40.1769 72.1173C40.1769 72.1173 40.1769 72.5514 40.1769 72.9373L40.6615 72.4067L56.6545 56.4878C56.9937 56.1526 57.4094 55.9044 57.8661 55.7642C58.2139 55.6899 58.5765 55.7297 58.8997 55.8775C59.2229 56.0253 59.4893 56.2732 59.6593 56.5843C59.8615 56.8748 59.9698 57.2197 59.9698 57.5732C59.9698 57.9266 59.8615 58.2716 59.6593 58.5621L59.1746 59.0927L43.1816 74.8187L42.697 75.2046H44.2478C48.455 75.2747 52.6501 74.7385 56.703 73.6127C60.0547 72.6976 63.2088 71.1769 66.008 69.1264C68.5889 67.1821 70.707 64.695 72.2114 61.8423C74.2786 57.9115 75.5622 53.6198 75.9915 49.2036C75.9915 47.9977 75.9915 46.7917 76.3308 45.5857V41.0995Z" fill="#0069B6"/>
</svg>
