<svg xmlns="http://www.w3.org/2000/svg" width="146.333" height="63.876" viewBox="0 0 146.333 63.876"><g transform="translate(0 0)"><path d="M314.848,5.238h-8.829V20.117a9.386,9.386,0,0,1-.318,2.2,7.333,7.333,0,0,1-.347,1.042h9.495ZM297.595,23.359h.753a3.308,3.308,0,0,0,.753-.261,2.67,2.67,0,0,0,.753-.637l.029-.029a3.547,3.547,0,0,0,.753-1.1,3.376,3.376,0,0,0,.26-1.3V2.633a2.507,2.507,0,0,1,.174-.926A2.894,2.894,0,0,1,301.561.9l.029-.029.029-.029A2.754,2.754,0,0,1,302.2.4a1.827,1.827,0,0,1,.666-.232l.058-.029h.232a.984.984,0,0,1,.289-.029H317.4a2.472,2.472,0,0,1,1.795.753,3.341,3.341,0,0,1,.579.839,2.687,2.687,0,0,1,.2.955v20.7h1.94v8.887a2.308,2.308,0,0,1-.2.984,2.428,2.428,0,0,1-.521.811h-.029a2.351,2.351,0,0,1-.84.55,2.308,2.308,0,0,1-.984.2,2.73,2.73,0,0,1-2.4-1.563,2.818,2.818,0,0,1-.174-.984V28.454H302.111v3.792a2.364,2.364,0,0,1-.753,1.795,2.586,2.586,0,0,1-3.647,0h-.029a2.429,2.429,0,0,1-.521-.811,2.308,2.308,0,0,1-.2-.984V23.359ZM292.7,23.3a2.059,2.059,0,0,1,.926.2,3.539,3.539,0,0,1,.839.492l.029.029a3.339,3.339,0,0,1,.579.839,2.982,2.982,0,0,1,.174,1.013,2.364,2.364,0,0,1-.753,1.795,2.515,2.515,0,0,1-.811.55,2.308,2.308,0,0,1-.984.2H279.155a2.472,2.472,0,0,1-1.795-.753,3.191,3.191,0,0,1-.579-.811,2.819,2.819,0,0,1-.174-.984V2.633A2.383,2.383,0,0,1,277.36.809a2.24,2.24,0,0,1,.811-.55,2.819,2.819,0,0,1,.984-.174H292.7a2.508,2.508,0,0,1,.926.174,3.539,3.539,0,0,1,.839.492l.029.058a2.423,2.423,0,0,1,.579.839,2.819,2.819,0,0,1,.174.984,2.364,2.364,0,0,1-.753,1.795,2.239,2.239,0,0,1-.811.55,2.308,2.308,0,0,1-.984.2h-11v6.6h8.25a2.508,2.508,0,0,1,.926.174,2.9,2.9,0,0,1,.811.492l.058.029a2.6,2.6,0,0,1,.753,1.853,2.472,2.472,0,0,1-.753,1.795,2.352,2.352,0,0,1-.84.55,2.181,2.181,0,0,1-.955.2H281.7V23.3ZM267.2,12.243,261.844,26.6a2.861,2.861,0,0,1-.926,1.332,2.657,2.657,0,0,1-1.534.463,2.889,2.889,0,0,1-1.534-.463,2.8,2.8,0,0,1-.9-1.332L252.291,13,249.83,26.312a2.531,2.531,0,0,1-1.042,1.65,2.65,2.65,0,0,1-.9.463,1.721,1.721,0,0,1-1.013-.029,2.7,2.7,0,0,1-.955-.347,2.187,2.187,0,0,1-.695-.666,2.719,2.719,0,0,1-.434-.926,2.976,2.976,0,0,1,0-1.013L248.73,2.112V2.083a2.5,2.5,0,0,1,.811-1.505A2.373,2.373,0,0,1,251.1,0a2.734,2.734,0,0,1,1.65.376,2.755,2.755,0,0,1,.984,1.418l5.7,16.066,5.934-16.124a2.514,2.514,0,0,1,.955-1.361,2.441,2.441,0,0,1,1.621-.405,2.347,2.347,0,0,1,1.563.55,2.658,2.658,0,0,1,.811,1.534l4.747,23.274a1.912,1.912,0,0,1,0,.811,4.124,4.124,0,0,1-.318,1.013v.058l-.058.058a2.865,2.865,0,0,1-.724.724,2.468,2.468,0,0,1-.9.376l-.058.029h-.2l-.116.029h-.145a2.424,2.424,0,0,1-1.65-.55,2.879,2.879,0,0,1-.84-1.534Z" transform="translate(-175.578 0.043)" fill="#008f6f" fill-rule="evenodd"/><path d="M316.652,151.8a1.837,1.837,0,0,1-.579,1.361,1.879,1.879,0,0,1-2.663.058l-.058-.058-.232-.318-.2-.261a7.888,7.888,0,0,1-9.669-1.129,7.752,7.752,0,0,1-2.316-5.529V136.14a2.152,2.152,0,0,1,.521-1.361,2.05,2.05,0,0,1,2.779,0,2.361,2.361,0,0,1,.55,1.361v9.727a4.066,4.066,0,0,0,3.995,4.024,3.986,3.986,0,0,0,2.866-1.216,3.862,3.862,0,0,0,1.158-2.547V136.14a1.837,1.837,0,0,1,.579-1.361,1.978,1.978,0,0,1,1.361-.55,2.361,2.361,0,0,1,1.361.55,2.033,2.033,0,0,1,.55,1.361Zm-21.48-7.179a5.579,5.579,0,0,0-5.529-5.5,5.062,5.062,0,0,0-3.821,1.65,5.391,5.391,0,0,0-.145,7.613l.145.145a5.114,5.114,0,0,0,3.821,1.592,5.644,5.644,0,0,0,3.908-1.592,5.332,5.332,0,0,0,1.621-3.908Zm3.59,0a9.149,9.149,0,0,1-9.119,9.09,9.031,9.031,0,0,1-9.032-9.061v-.029a9.031,9.031,0,0,1,9.032-9.061h0a9.084,9.084,0,0,1,5.529,1.853v-1.968a5.153,5.153,0,0,0-1.679-3.619,5.685,5.685,0,0,0-3.85-1.39h-2.953a2.033,2.033,0,0,1-1.361-.55,2.361,2.361,0,0,1-.55-1.361,1.811,1.811,0,0,1,.55-1.39,1.79,1.79,0,0,1,1.361-.637H289.7a10.379,10.379,0,0,1,6.369,2.837,8.515,8.515,0,0,1,2.692,6.224Zm-23.477-2.605a5.239,5.239,0,0,0-2.258-3.011,5.9,5.9,0,0,0-3.387-.955,6.007,6.007,0,0,0-5.587,3.966Zm-11.232,3.85a5.993,5.993,0,0,0,5.587,3.995c.492,0,.753-.029.782-.029l.318-.058.318-.029.232-.029.174-.058a8.068,8.068,0,0,0,2.518-1.071,1.445,1.445,0,0,1,1.447-.116,1.9,1.9,0,0,1,1.129.984c.463.984.145,1.824-.926,2.576a12.339,12.339,0,0,1-3.416,1.476l-.289.029-.289.058-.405.029-.434.029-.579.058h-.579a9.756,9.756,0,1,1,0-19.511h0a9.582,9.582,0,0,1,6.658,2.49,9.346,9.346,0,0,1,3.1,7.266,2.032,2.032,0,0,1-.55,1.361,2.2,2.2,0,0,1-1.39.55Zm-12.94,3.995a3.567,3.567,0,0,0,2.576-1.1,3.65,3.65,0,0,0,1.1-2.663,3.956,3.956,0,0,0-3.879-3.879h-7.932v7.642Zm-8.134-19.366v7.816h5.3a3.94,3.94,0,0,0,2.953-6.6l-.116-.116a3.859,3.859,0,0,0-2.837-1.1Zm-1.94,23.245a1.978,1.978,0,0,1-1.94-1.94V128.555a1.837,1.837,0,0,1,.579-1.361,2.017,2.017,0,0,1,1.418-.579h7.5a7.948,7.948,0,0,1,5.3,2.374,7.3,7.3,0,0,1,2.258,5.384,7.931,7.931,0,0,1-1.708,4.834,7.366,7.366,0,0,1,3.04,2.837,7.446,7.446,0,0,1-.984,9.292,7.893,7.893,0,0,1-5.124,2.4Z" transform="translate(-171.564 -89.868)" fill="#008f6f" fill-rule="evenodd"/><path d="M40.075,74.7c-.637,1.563-1.679,2.258-2.287.55a4.156,4.156,0,0,0-4.024-3.1h-.145a4.13,4.13,0,0,0-4.024,3.1c-.579,1.708-1.621,1.013-2.287-.55-2.084-5.008-2.4-7.845-2.4-10.277,0-2.142.637-3.85,3.04-3.387a22.448,22.448,0,0,0,5.674.608h.145a23.688,23.688,0,0,0,5.674-.608c2.374-.434,3.04,1.245,3.04,3.387C42.477,66.855,42.159,69.692,40.075,74.7Zm20.959-9.871a53.874,53.874,0,0,0,.55-5.5c0-2.171-1.679-4.429-3.358-7.179a18.206,18.206,0,0,1-2.142-4.342c-.405-2.634-2.547-6.34-5.3-7.729-.463-.724-1.013-1.361-1.447-1.418-.926-.145-1.563.695-1.94,1.013-.579.2-4.632,1.216-5.153,1.708s-2.692,2.4-2.692,2.4l-2.432.984c-.145-.145-1.39.492-1.129,1.129a3.8,3.8,0,0,0,.9,1.505l3.126,1.3a3.916,3.916,0,0,1,1.853,3.705A4.8,4.8,0,0,1,40.8,55.362a13.01,13.01,0,0,1-7.121,2.518,12.978,12.978,0,0,1-7.092-2.518,4.8,4.8,0,0,1-1.071-2.953A3.916,3.916,0,0,1,27.366,48.7l3.126-1.3a3.8,3.8,0,0,0,.9-1.505c.261-.637-.984-1.274-1.129-1.129l-2.432-.984s-2.2-1.882-2.692-2.4-4.574-1.505-5.182-1.708c-.347-.318-.984-1.158-1.911-1.013-.434.058-.984.695-1.447,1.418-2.75,1.39-4.892,5.095-5.3,7.729a18.206,18.206,0,0,1-2.142,4.342C7.479,54.9,5.8,57.157,5.8,59.328a53.875,53.875,0,0,0,.55,5.5,5.227,5.227,0,0,0,1.274,1.592c0,.087-.116,4.719-.116,4.719l-.116,4.487a4.759,4.759,0,0,0,3.04,4.6,11.167,11.167,0,0,0,6.079.405c1.882-.405.724-3.358-.116-3.705,0,0-.174-2.808,2.084-1.505,1.332.782,2.287,2.374,3.358,3.445,1.361,1.332,4.748,1.1,6.687,1.042a12.983,12.983,0,0,0,1.824-.289,33.181,33.181,0,0,1,3.329-.695,31.885,31.885,0,0,1,3.358.695,1.187,1.187,0,0,0,.695.174l1.158.116c1.911.058,5.3.289,6.658-1.042,1.071-1.071,2.026-2.663,3.358-3.445,2.229-1.3,2.084,1.505,2.084,1.505-.839.347-2,3.3-.087,3.705a11.065,11.065,0,0,0,6.05-.405,4.805,4.805,0,0,0,3.04-4.6l-.116-4.487s-.116-4.632-.116-4.719A5.655,5.655,0,0,0,61.033,64.828Z" transform="translate(-5.8 -27.444)" fill="#008f6f" fill-rule="evenodd"/><path d="M89.124,9.574a.761.761,0,0,0-.753.724c0,.145.087.2.145.318-3.908,1.1-3.416-.724-2.75-2.953a.643.643,0,0,0,.318.145.724.724,0,1,0,0-1.447.742.742,0,0,0-.753.724.649.649,0,0,0,.347.55c-3.242,3.85-4.082-1.534-4.2-2.287a.739.739,0,1,0-.087,0c-.087.753-.955,6.137-4.2,2.287a.649.649,0,0,0,.347-.55.753.753,0,1,0-.782.724.465.465,0,0,0,.318-.145c.695,2.229,1.158,4.053-2.75,2.953.058-.116.145-.174.145-.318a.756.756,0,0,0-.724-.724.747.747,0,0,0-.753.753.724.724,0,0,0,.753.724.647.647,0,0,0,.521-.289c1.679,1.563,2.982,2.808,2.982,2.808s1.071-1.245,4.082-1.245h.145c3.011,0,4.082,1.245,4.082,1.245s1.3-1.245,2.982-2.808a.859.859,0,0,0,.55.289.738.738,0,0,0,.029-1.476Z" transform="translate(-53.547 -2.759)" fill="#008f6f" fill-rule="evenodd"/><path d="M92.876,35.9A5.848,5.848,0,0,0,89.2,36.942l.318.318a5.982,5.982,0,0,1,3.358-.9h.145a5.758,5.758,0,0,1,3.358.9l.318-.289A5.8,5.8,0,0,0,93.021,35.9h-.145Z" transform="translate(-65.057 -25.495)" fill="#008f6f" fill-rule="evenodd"/></g></svg>