<?xml version="1.0" encoding="utf-8"?>
<!-- Generator: Adobe Illustrator 25.1.0, SVG Export Plug-In . SVG Version: 6.00 Build 0)  -->
<svg version="1.1" id="Ebene_1" xmlns="http://www.w3.org/2000/svg" xmlns:xlink="http://www.w3.org/1999/xlink" x="0px" y="0px"
	 viewBox="0 0 209.1 132" style="enable-background:new 0 0 209.1 132;" xml:space="preserve">
<style type="text/css">
	.st0{fill:#1D1D1B;}
	.st1{fill:#D51830;}
	.st2{fill:#FFFFFF;}
</style>
<g id="Ebene_1_1_">
	<rect y="0" class="st0" width="209.1" height="132"/>
	<rect y="0" class="st1" width="209.1" height="132"/>
	<g>
		<path class="st2" d="M22.4,46.7v-0.9c0,0,44.8-12.4,83.2-12.4c54.3,0,83.2,12.4,83.2,12.4v0.9h-19.2c0,0-25.9-7.7-64.1-7.7
			C62.2,38.9,22.4,46.7,22.4,46.7"/>
		<path class="st2" d="M188.8,83.5v0.9c0,0-44.8,12.4-83.2,12.4c-54.3,0-83.2-12.4-83.2-12.4v-0.9h19c0,0,26.1,7.7,64.3,7.7
			C149,91.2,188.8,83.5,188.8,83.5"/>
		<path class="st2" d="M82.6,69.3C82.1,71,80.9,72,79,73c-1.8,0.9-4.3,1.4-7.6,1.4c-7.6,0-11.9-2.8-11.9-8.5c0-5.4,4.1-8.5,11.2-8.5
			c7,0,12.1,2.3,12,10.2H66.9c0,1.1,1.2,3.1,4.3,3.1c1.9,0,3-0.3,3.7-1.3L82.6,69.3L82.6,69.3z M75.7,64c-0.1-1.7-1.8-3-4.3-3
			c-2.6,0-4,1-4.4,3H75.7z"/>
		<path class="st2" d="M85.1,58h7v2h0.1c0.7-1,3.1-2.4,6.5-2.4c4,0,7,1.8,7,6.2v10h-7.2v-8.2c0-2-1.1-2.9-2.8-2.9
			c-1.9,0-3.3,1.1-3.3,3.7v7.3h-7.2L85.1,58L85.1,58z"/>
		<path class="st2" d="M111.1,62.3h-3.3v-4.2h3.3v-1.8c0.3-2.6,1.7-4,6.4-4c1.4,0,3.2,0,4.7,0.2v3.4H120c-1.3,0-1.7,0.5-1.7,1.7v0.6
			h3.9v4.2h-3.9v11.5h-7.2C111.1,73.9,111.1,62.3,111.1,62.3z"/>
		<path class="st2" d="M148.8,58h7v3h0.1c1.9-2.4,4.2-3.5,6.7-3.5c0.8,0,1.8,0.2,2.7,0.4l-0.9,6.3c-1.7-0.5-1.9-1.1-3.2-1.1
			c-2.6,0-5.1,0.6-5.1,4v6.5h-7.2V58H148.8z"/>
		<path class="st2" d="M166.3,58.1h3.3V56l7.2-3.1v5.2h3.9v4.3h-3.9v5.7c0,1.5,0.6,1.6,2.2,1.6c0.6,0,1.2,0,1.9-0.1v4.2
			c-1.3,0.2-3,0.3-5.2,0.3c-4.4,0-6-0.8-6-5.1v-6.6h-3.3L166.3,58.1L166.3,58.1z"/>
		<path class="st2" d="M146.6,69.3c-0.5,1.6-1.8,2.7-3.6,3.6s-4.3,1.4-7.6,1.4c-7.6,0-11.9-2.8-11.9-8.5c0-5.4,4.1-8.5,11.2-8.5
			c7,0,12.1,2.3,12,10.2h-15.8c0,1.1,1.2,3.1,4.3,3.1c1.9,0,3-0.3,3.7-1.3C138.9,69.3,146.6,69.3,146.6,69.3z M139.7,63.9
			c-0.1-1.7-1.8-3-4.3-3c-2.6,0-4,1-4.4,3H139.7z"/>
		<path class="st2" d="M58.8,73.8h-9.1l-3-6.6h-5.3v6.6h-8V53.2h15.8c2.3,0,5.3,0.7,6.3,1.5c1.3,1,2.4,2,2.7,4.6
			c0.3,2.3-0.7,5.6-3.8,7.1L58.8,73.8z M41.3,62.6h5.8c2,0,2.4-1,2.4-2.3c0-1.6-1.2-2.2-2.5-2.2h-5.6v4.5H41.3z"/>
	</g>
</g>
<g id="Ebene_2_1_">
</g>
</svg>
