<svg xmlns="http://www.w3.org/2000/svg" viewBox="0 0 851.96 221.32"><defs><style>.cls-1,.cls-2{fill:#00457c;}.cls-1,.cls-3{fill-rule:evenodd;}.cls-3{fill:#76bc21;}</style></defs><title>Asset 1</title><g id="Layer_2" data-name="Layer 2"><g id="Layer_1-2" data-name="Layer 1"><polygon class="cls-1" points="368.93 150.57 305.38 150.57 305.38 64.53 367.77 64.53 369.92 79.59 333.35 79.59 333.35 98.95 367.77 98.95 367.77 114.01 333.35 114.01 333.35 135.52 371.25 135.52 368.93 150.57"/><path class="cls-2" d="M207.07,178.88h3.7v3.87h1.5a13.15,13.15,0,0,1,6.38,1.46,9.94,9.94,0,0,1,4.12,4.13,12.67,12.67,0,0,1,1.43,6.08,12.48,12.48,0,0,1-1.6,6.35,10.37,10.37,0,0,1-4.38,4.18,14.53,14.53,0,0,1-6.57,1.39h-.88v4.84h-3.7v-4.84h-1a14.29,14.29,0,0,1-6.56-1.41,10.26,10.26,0,0,1-4.34-4.22,13.3,13.3,0,0,1-.12-12.31,10.29,10.29,0,0,1,4.16-4.16,13,13,0,0,1,6.38-1.49h1.44Zm0,7h-1.22a8.25,8.25,0,0,0-6.16,2.27,8.46,8.46,0,0,0-2.25,6.21,8.76,8.76,0,0,0,2.39,6.57,9.24,9.24,0,0,0,6.73,2.33h.51Zm3.7,17.38h.54a9.16,9.16,0,0,0,6.71-2.35,8.75,8.75,0,0,0,2.4-6.55,8.51,8.51,0,0,0-2.22-6.23,8.27,8.27,0,0,0-6.19-2.25h-1.24Z"/><path class="cls-2" d="M245,210.75l-.71-3.35h-.18a10,10,0,0,1-3.51,3,10.75,10.75,0,0,1-4.37.78,7.86,7.86,0,0,1-5.49-1.8,6.59,6.59,0,0,1-2-5.14q0-7.14,11.41-7.48l4-.13v-1.46a5.93,5.93,0,0,0-1.2-4.09,4.85,4.85,0,0,0-3.81-1.33,15.61,15.61,0,0,0-6.66,1.81l-1.1-2.73a16.76,16.76,0,0,1,3.82-1.48,16.44,16.44,0,0,1,4.16-.54q4.2,0,6.24,1.87c1.35,1.25,2,3.24,2,6v16.07Zm-8.06-2.51a7.23,7.23,0,0,0,5.23-1.83,6.75,6.75,0,0,0,1.9-5.12v-2.12l-3.57.15c-2.83.1-4.88.54-6.13,1.32a4,4,0,0,0-1.88,3.64,3.7,3.7,0,0,0,1.17,2.95A4.87,4.87,0,0,0,236.91,208.24Z"/><path class="cls-2" d="M267,211.18a10.14,10.14,0,0,1-4.2-.85,7.87,7.87,0,0,1-3.19-2.61h-.26a32.06,32.06,0,0,1,.26,3.91v9.69h-3.57V187.2H259l.5,3.22h.17a8.18,8.18,0,0,1,3.2-2.79,9.63,9.63,0,0,1,4.19-.86,8.69,8.69,0,0,1,7.23,3.2c1.7,2.13,2.55,5.13,2.55,9s-.86,6.88-2.59,9A8.73,8.73,0,0,1,267,211.18Zm-.52-21.38c-2.4,0-4.14.66-5.22,2s-1.62,3.45-1.65,6.36V199q0,5,1.65,7.1t5.31,2.14a5.5,5.5,0,0,0,4.78-2.47,11.67,11.67,0,0,0,1.73-6.81c0-2.94-.57-5.19-1.73-6.76A5.67,5.67,0,0,0,266.5,189.8Z"/><path class="cls-2" d="M296.36,207.31l.67-2,.92-2.53,6.38-15.54h4.54v23.51h-3.16V191.3l-.43,1.25L304,195.84,298,210.75h-3l-6.08-15a44.34,44.34,0,0,1-1.57-4.49v19.45h-3.18V187.24h4.36l6.17,14.94A53.18,53.18,0,0,1,296.36,207.31Z"/><path class="cls-2" d="M331.18,210.75l-.71-3.35h-.17a10.09,10.09,0,0,1-3.52,3,10.71,10.71,0,0,1-4.37.78,7.9,7.9,0,0,1-5.49-1.8,6.59,6.59,0,0,1-2-5.14q0-7.14,11.41-7.48l4-.13v-1.46a6,6,0,0,0-1.19-4.09,4.89,4.89,0,0,0-3.82-1.33,15.61,15.61,0,0,0-6.66,1.81l-1.09-2.73a16.86,16.86,0,0,1,3.81-1.48,16.44,16.44,0,0,1,4.16-.54q4.21,0,6.24,1.87c1.36,1.25,2,3.24,2,6v16.07Zm-8.06-2.51a7.21,7.21,0,0,0,5.23-1.83,6.76,6.76,0,0,0,1.91-5.12v-2.12l-3.57.15c-2.84.1-4.88.54-6.14,1.32a4,4,0,0,0-1.88,3.64,3.7,3.7,0,0,0,1.17,2.95A4.89,4.89,0,0,0,323.12,208.24Z"/><path class="cls-2" d="M365.25,218.9h-3.57v-8.15H342.27V187.2h3.57v20.48h12.51V187.2h3.57v20.48h3.33Z"/><path class="cls-2" d="M380.88,211.18a10.84,10.84,0,0,1-8.25-3.18c-2-2.12-3-5.07-3-8.83s.94-6.82,2.81-9a9.3,9.3,0,0,1,7.53-3.35,8.9,8.9,0,0,1,7,2.91,11.15,11.15,0,0,1,2.58,7.68v2.26H373.31a9.34,9.34,0,0,0,2.1,6.3,7.24,7.24,0,0,0,5.59,2.14,19,19,0,0,0,7.53-1.59v3.18a18.91,18.91,0,0,1-3.58,1.18A20.63,20.63,0,0,1,380.88,211.18Zm-1-21.43a5.86,5.86,0,0,0-4.53,1.85,8.55,8.55,0,0,0-2,5.12h12.31a7.85,7.85,0,0,0-1.5-5.17A5.3,5.3,0,0,0,379.91,189.75Z"/><path class="cls-2" d="M415.82,193.11a4.47,4.47,0,0,1-1.32,3.49,7.23,7.23,0,0,1-3.7,1.6v.19a7.64,7.64,0,0,1,4.39,1.77,5,5,0,0,1,1.39,3.73,5.94,5.94,0,0,1-2.42,5.08c-1.61,1.19-4,1.78-7.06,1.78H396.72V187.2h10.34Q415.82,187.2,415.82,193.11Zm-3.48.34A2.55,2.55,0,0,0,411,191a8.67,8.67,0,0,0-4-.72h-6.72v6.64h6a9.68,9.68,0,0,0,4.66-.81A2.89,2.89,0,0,0,412.34,193.45Zm.67,10.21a3,3,0,0,0-1.45-2.78,9.83,9.83,0,0,0-4.8-.87h-6.47v7.75h6.55Q413,207.76,413,203.66Z"/><path class="cls-2" d="M439.62,190.25H432v20.5H428.4v-20.5h-7.56V187.2h18.78Z"/><path class="cls-2" d="M447.85,187.2v14.93L447.7,206l-.06,1.23,12.74-20.07h4.45v23.55H461.5v-14.4l.07-2.84.1-2.79-12.72,20H444.5V187.2Z"/><path class="cls-2" d="M474.87,187.2v8.59q0,4.13,4.71,4.13a11.67,11.67,0,0,0,3.74-.6,18.88,18.88,0,0,0,4-2V187.2h3.57v23.55h-3.57V200.09a16.86,16.86,0,0,1-4.18,2.18,13.63,13.63,0,0,1-4.35.64,7.82,7.82,0,0,1-5.52-1.85,6.46,6.46,0,0,1-2-5V187.2Z"/><path class="cls-2" d="M509.54,211.18A10.82,10.82,0,0,1,501.3,208c-2-2.12-3-5.07-3-8.83s.94-6.82,2.81-9a9.3,9.3,0,0,1,7.53-3.35,8.9,8.9,0,0,1,7,2.91,11.19,11.19,0,0,1,2.57,7.68v2.26H502a9.39,9.39,0,0,0,2.09,6.3,7.27,7.27,0,0,0,5.6,2.14,18.92,18.92,0,0,0,7.52-1.59v3.18a18.83,18.83,0,0,1-3.57,1.18A20.74,20.74,0,0,1,509.54,211.18Zm-1-21.43a5.84,5.84,0,0,0-4.53,1.85,8.55,8.55,0,0,0-2,5.12h12.32a7.8,7.8,0,0,0-1.51-5.17A5.27,5.27,0,0,0,508.58,189.75Z"/><path class="cls-2" d="M534.8,211.18q-5.12,0-7.92-3.15t-2.8-8.91q0-5.91,2.84-9.13t8.12-3.22a16.28,16.28,0,0,1,3.39.36,11.63,11.63,0,0,1,2.67.86l-1.1,3a17.79,17.79,0,0,0-2.58-.78,11.31,11.31,0,0,0-2.47-.31q-7.17,0-7.18,9.15a10.94,10.94,0,0,0,1.75,6.66,6.09,6.09,0,0,0,5.19,2.32,15.92,15.92,0,0,0,6-1.26V210A12.94,12.94,0,0,1,534.8,211.18Z"/><path class="cls-2" d="M561.17,187.2h3.92l-10.17,11.36,11,12.19h-4.17L551,198.82v11.93h-3.57V187.2H551v11.45Z"/><path class="cls-2" d="M585.87,210.75l-.71-3.35H585a10.16,10.16,0,0,1-3.51,3,10.8,10.8,0,0,1-4.38.78,7.9,7.9,0,0,1-5.49-1.8,6.62,6.62,0,0,1-2-5.14q0-7.14,11.42-7.48l4-.13v-1.46a6,6,0,0,0-1.19-4.09,4.87,4.87,0,0,0-3.81-1.33,15.62,15.62,0,0,0-6.67,1.81l-1.09-2.73a16.86,16.86,0,0,1,3.81-1.48,16.44,16.44,0,0,1,4.16-.54q4.21,0,6.24,1.87c1.36,1.25,2,3.24,2,6v16.07Zm-8.06-2.51a7.26,7.26,0,0,0,5.24-1.83,6.79,6.79,0,0,0,1.9-5.12v-2.12l-3.57.15c-2.84.1-4.88.54-6.14,1.32a4,4,0,0,0-1.88,3.64,3.7,3.7,0,0,0,1.17,2.95A4.91,4.91,0,0,0,577.81,208.24Z"/><path class="cls-2" d="M598.15,210.75H594l6.77-9.95a7.29,7.29,0,0,1-4.18-2.33,6.53,6.53,0,0,1-1.45-4.35,6.33,6.33,0,0,1,2.17-5.08,9,9,0,0,1,6.06-1.84h10.48v23.55h-3.56v-9.41h-6Zm.45-16.59c0,2.72,2,4.08,5.93,4.08h5.74v-8H603.8Q598.6,190.29,598.6,194.16Z"/><path class="cls-2" d="M650.53,187.2h3.91l-10.17,11.36,11,12.19h-4.17l-10.75-11.93v11.93h-3.57V187.2h3.57v11.45Z"/><path class="cls-2" d="M681.07,199q0,5.76-2.9,9a10.25,10.25,0,0,1-8,3.23,10.64,10.64,0,0,1-5.61-1.48,9.82,9.82,0,0,1-3.78-4.26,14.81,14.81,0,0,1-1.33-6.49q0-5.76,2.88-9a10.18,10.18,0,0,1,8-3.21,10,10,0,0,1,7.86,3.28C680.1,192.25,681.07,195.21,681.07,199Zm-17.94,0q0,4.52,1.8,6.88a6.25,6.25,0,0,0,5.31,2.36,6.31,6.31,0,0,0,5.32-2.35q1.82-2.35,1.81-6.89c0-3-.6-5.27-1.81-6.82a6.36,6.36,0,0,0-5.36-2.33,6.26,6.26,0,0,0-5.29,2.3Q663.13,194.4,663.13,199Z"/><path class="cls-2" d="M699.77,207.31l.67-2,.92-2.53,6.39-15.54h4.53v23.51h-3.16V191.3l-.43,1.25-1.25,3.29-6.08,14.91h-3l-6.09-15a44.34,44.34,0,0,1-1.57-4.49v19.45h-3.18V187.24h4.37l6.16,14.94A50.56,50.56,0,0,1,699.77,207.31Z"/><path class="cls-2" d="M724.55,210.75H721V187.2h19.77v23.55h-3.61V190.29h-12.6Z"/><path class="cls-2" d="M762.15,210.75l-.71-3.35h-.17a10.09,10.09,0,0,1-3.52,3,10.71,10.71,0,0,1-4.37.78,7.9,7.9,0,0,1-5.49-1.8,6.59,6.59,0,0,1-2-5.14q0-7.14,11.41-7.48l4-.13v-1.46a6,6,0,0,0-1.19-4.09,4.89,4.89,0,0,0-3.82-1.33,15.61,15.61,0,0,0-6.66,1.81l-1.09-2.73a16.86,16.86,0,0,1,3.81-1.48,16.44,16.44,0,0,1,4.16-.54q4.22,0,6.24,1.87c1.36,1.25,2,3.24,2,6v16.07Zm-8.06-2.51a7.23,7.23,0,0,0,5.23-1.83,6.75,6.75,0,0,0,1.9-5.12v-2.12l-3.56.15c-2.84.1-4.88.54-6.14,1.32a4,4,0,0,0-1.88,3.64,3.7,3.7,0,0,0,1.17,2.95A4.89,4.89,0,0,0,754.09,208.24Z"/><path class="cls-2" d="M776.81,187.2v9.86H790V187.2h3.56v23.55H790V200.13h-13.2v10.62h-3.57V187.2Z"/><path class="cls-2" d="M805.59,187.2v14.93l-.15,3.91-.06,1.23,12.74-20.07h4.45v23.55h-3.33v-14.4l.06-2.84.11-2.79-12.72,20h-4.45V187.2Z"/><path class="cls-2" d="M832.42,210.75h-4.17L835,200.8a7.29,7.29,0,0,1-4.18-2.33,6.53,6.53,0,0,1-1.45-4.35,6.33,6.33,0,0,1,2.17-5.08,9,9,0,0,1,6.06-1.84H848.1v23.55h-3.56v-9.41h-6Zm.45-16.59c0,2.72,2,4.08,5.93,4.08h5.74v-8h-6.47Q832.87,190.29,832.87,194.16Z"/><path class="cls-1" d="M437.34,64.53H399.62v86h28V120.9l6.64-.06c3.07,0,9.09-.26,11.81-.53,20.42-2,31-11.56,31-27.77C477.06,75.1,465.7,64.53,437.34,64.53Zm-6.83,44.18h-2.93V77.59h7.32a14.82,14.82,0,0,1,14.19,15C449.09,103.23,440.14,108.71,430.51,108.71Z"/><polygon class="cls-1" points="761.07 150.57 726.6 105.8 763.16 64.53 736.12 64.53 702.99 100.61 702.99 64.53 675.03 64.53 675.03 150.57 702.99 150.57 702.99 114.11 730.1 150.57 761.07 150.57"/><path class="cls-1" d="M256.59,104.92v-.67c8.75-1.63,17.64-8.25,17.64-19.7,0-14-12.88-20-31.92-20H193.6v86.05h50.73c21,0,33.16-8.79,33.16-23.83C277.49,112.37,266.31,106.08,256.59,104.92Zm-35-27.32h10.3c8.09,0,13.36,4.4,13.36,11.33,0,7.41-6.59,12.34-15.41,12.34h-8.25Zm11.21,60.09H221.56V112h10.55c8.49,0,15.26,4.62,15.26,12.34C247.37,131.86,241.51,137.69,232.77,137.69Z"/><polygon class="cls-1" points="564.14 64.53 566.55 79.6 539.27 79.6 539.27 151.06 510.05 151.06 510.05 79.6 484.01 79.6 486.31 64.53 564.14 64.53"/><polygon class="cls-1" points="646.96 150.57 583.42 150.57 583.42 64.53 645.8 64.53 647.95 79.59 611.38 79.59 611.38 98.95 645.8 98.95 645.8 114.01 611.38 114.01 611.38 135.52 649.28 135.52 646.96 150.57"/><path class="cls-1" d="M0,129.07c41.55,0,78.86-8.22,104.47-21.52,22,11.42,35.35,26.46,35.35,43,0,35.68-62.6,64.61-139.82,64.61Z"/><path class="cls-3" d="M0,0C74.13.78,133.59,27.63,133.59,60.64c0,16.47-14.8,31.41-38.84,42.34C69.84,92.37,36.56,86,0,86Z"/><path class="cls-1" d="M842.27,130c-5.21,4.16-11.86,8.44-21.35,8.44-14,0-23.43-9.32-23.43-30.88,0-21.83,9.46-31.15,23.43-31.15,9.24,0,15.8,4.31,20.94,8.38L852,73.2c-9.24-6.9-19.5-10.82-33.15-10.82-30.17,0-51.44,17.65-51.44,45.2s21.27,45.15,51.44,45.15c13.38,0,23.52-3.61,32.62-10.34Z"/></g></g></svg>