<svg width="44" height="44" viewBox="0 0 44 44" fill="none" xmlns="http://www.w3.org/2000/svg">
<rect x="44" y="1.90735e-06" width="44" height="44" rx="6" transform="rotate(90 44 1.90735e-06)" fill="#1143FE"/>
<path d="M17.6308 26.0322C16.3281 26.0322 16.0009 26.5 14.5 26.5C13.0014 26.5 12.6742 26.0322 11.3692 26.0322C7.99 26.0322 7 28.8906 7 30.3752V32.125C7 33.1605 7.83953 34 8.875 34H20.125C21.1605 34 22 33.1605 22 32.125V30.3752C22 28.3727 20.5666 26.0322 17.6308 26.0322ZM19.75 31.75H9.25V30.3752C9.25 29.7184 9.63203 28.2822 11.3692 28.2822C12.1773 28.2822 12.7548 28.75 14.5 28.75C16.2517 28.75 16.8198 28.2822 17.6308 28.2822C19.3661 28.2822 19.75 29.7156 19.75 30.3752V31.75ZM14.5 25C16.9853 25 19 22.9853 19 20.5C19 18.0147 16.9853 16 14.5 16C12.0147 16 10 18.0147 10 20.5C10 22.9853 12.0147 25 14.5 25ZM14.5 18.25C15.7408 18.25 16.75 19.2592 16.75 20.5C16.75 21.7408 15.7408 22.75 14.5 22.75C13.2592 22.75 12.25 21.7408 12.25 20.5C12.25 19.2592 13.2592 18.25 14.5 18.25ZM34.75 10H16.75C15.5092 10 14.5 11.043 14.5 12.3245V14.5C14.9542 14.5 16.0127 14.6467 16.75 14.9462V12.25H34.75V27.25H32.5V25C32.5 24.1717 31.8283 23.5 31 23.5H25C24.1717 23.5 23.5 24.1717 23.5 25V29.5H34.75C35.9908 29.5 37 28.457 37 27.1755V12.3245C37 11.043 35.9908 10 34.75 10ZM30.25 27.25H25.75V25.75H30.25V27.25Z" fill="white"/>
</svg>
