<svg width="44" height="44" viewBox="0 0 44 44" fill="none" xmlns="http://www.w3.org/2000/svg">
<rect x="44" y="3.8147e-06" width="44" height="44" rx="6" transform="rotate(90 44 3.8147e-06)" fill="#1143FE"/>
<g clip-path="url(#clip0)">
<path d="M35.25 10H9.75C9.33562 10 9 10.3356 9 10.75V11.5C9 11.9144 9.33562 12.25 9.75 12.25H10.5V25C10.5 25.8283 11.1717 26.5 12 26.5H21.375V28.5494L17.7352 32.1892C17.4422 32.4822 17.4422 32.957 17.7352 33.25L18.2653 33.7802C18.5583 34.0731 19.0331 34.0731 19.3261 33.7802L22.5 30.6063L25.6744 33.7806C25.9673 34.0736 26.4422 34.0736 26.7352 33.7806L27.2648 33.25C27.5578 32.957 27.5578 32.4822 27.2648 32.1892L23.625 28.5494V26.5H33C33.8283 26.5 34.5 25.8283 34.5 25V12.25H35.25C35.6644 12.25 36 11.9144 36 11.5V10.75C36 10.3356 35.6644 10 35.25 10ZM32.25 24.25H12.75V12.25H32.25V24.25Z" fill="white"/>
</g>
<defs>
<clipPath id="clip0">
<rect width="27" height="24" fill="white" transform="translate(9 10)"/>
</clipPath>
</defs>
</svg>
