<?xml version="1.0" encoding="UTF-8"?>
<svg viewBox="0 0 19 10" version="1.1" xmlns="http://www.w3.org/2000/svg" xmlns:xlink="http://www.w3.org/1999/xlink">
    <g stroke="none" stroke-width="1" fill="none" fill-rule="evenodd">
        <g fill="#FF8A00">
            <path d="M4.0172,0.3131 L2.9187,2.6401 L0.4609,3.0145 C0.0202,3.0813 -0.1564,3.649 0.1632,3.9741 L1.9413,5.7845 L1.5208,8.3418 C1.4451,8.804 1.911,9.1503 2.3013,8.9341 L4.5,7.7266 L6.6987,8.9341 C7.089,9.1485 7.5549,8.804 7.4792,8.3418 L7.0587,5.7845 L8.8368,3.9741 C9.1564,3.649 8.9798,3.0813 8.5391,3.0145 L6.0813,2.6401 L4.9828,0.3131 C4.786,-0.1017 4.2157,-0.107 4.0172,0.3131 Z" id="Path"></path>
            <path d="M14.0487,5.5039 L14.4588,1.8906 L18.4432,1.8906 L18.4432,3.0674 L15.6161,3.0674 L15.4403,4.5957 C15.7756,4.4167 16.132,4.3271 16.5096,4.3271 C17.1867,4.3271 17.7173,4.5371 18.1014,4.957 C18.4855,5.377 18.6776,5.9645 18.6776,6.7197 C18.6776,7.1787 18.5799,7.5905 18.3846,7.9551 C18.1926,8.3164 17.9159,8.598 17.5545,8.7998 C17.1932,8.9984 16.7668,9.0977 16.2752,9.0977 C15.8456,9.0977 15.4468,9.0114 15.0789,8.8389 C14.7111,8.6631 14.4198,8.4173 14.2049,8.1016 C13.9933,7.7858 13.881,7.4261 13.868,7.0225 L15.2645,7.0225 C15.2938,7.3187 15.3963,7.5498 15.5721,7.7158 C15.7511,7.8786 15.9839,7.96 16.2704,7.96 C16.5894,7.96 16.8351,7.846 17.0077,7.6182 C17.1802,7.387 17.2664,7.0615 17.2664,6.6416 C17.2664,6.238 17.1672,5.9287 16.9686,5.7139 C16.77,5.499 16.4885,5.3916 16.1239,5.3916 C15.7886,5.3916 15.5168,5.4795 15.3084,5.6553 L15.1717,5.7822 L14.0487,5.5039 Z" id="Path"></path>
        </g>
    </g>
</svg>
